<svg width="30" height="31" viewBox="0 0 30 31" fill="none" xmlns="http://www.w3.org/2000/svg">
<rect opacity="0.1" y="0.5" width="30" height="30" rx="5" fill="#091331"/>
<path d="M22.4966 22.2498L22.5 22.2492V17.2981C22.5 14.8759 21.9785 13.0101 19.1469 13.0101C17.7856 13.0101 16.8721 13.7571 16.4992 14.4653H16.4598V13.2363H13.775V22.2492H16.5706V17.7863C16.5706 16.6113 16.7934 15.475 18.2486 15.475C19.6824 15.475 19.7038 16.816 19.7038 17.8617V22.2498H22.4966Z" fill="#091331"/>
<path d="M9.2229 13.2372H12.0219V22.2501H9.2229V13.2372Z" fill="#091331"/>
<path d="M10.6211 8.75C9.72619 8.75 9 9.47619 9 10.3711C9 11.2661 9.72619 12.0074 10.6211 12.0074C11.5161 12.0074 12.2422 11.2661 12.2422 10.3711C12.2417 9.47619 11.5155 8.75 10.6211 8.75Z" fill="#091331"/>
</svg>
