<svg width="103" height="100" viewBox="0 0 103 100" fill="none" xmlns="http://www.w3.org/2000/svg">
<path d="M100.446 39.6422V60.3588C100.446 64.2398 97.2971 67.4051 93.3994 67.4051H67.8498V92.9389C67.8498 96.8357 64.7012 100 60.8035 100H40.1017C36.2049 100 33.0554 96.8357 33.0554 92.9389V67.4051H7.50579C3.60901 67.4051 0.459473 64.2408 0.459473 60.3588V39.6422C0.459473 35.7602 3.60802 32.5959 7.50579 32.5959H33.0564V7.04631C33.0564 3.16529 36.2049 0 40.1027 0H60.8044C64.7012 0 67.8508 3.1643 67.8508 7.04631V32.5959H93.4004C97.2962 32.5959 100.446 35.7602 100.446 39.6422Z" fill="#091331"/>
<path d="M89.7548 29.2209C96.662 29.2209 102.261 23.6215 102.261 16.7144C102.261 9.80722 96.662 4.20789 89.7548 4.20789C82.8477 4.20789 77.2483 9.80722 77.2483 16.7144C77.2483 23.6215 82.8477 29.2209 89.7548 29.2209Z" fill="#204289"/>
<path d="M70.2324 27.7047C44.6828 27.7047 33.0564 50.3578 33.0564 68.8316V83.8231C36.4018 61.4023 56.1516 56.8223 71.2838 54.0213C88.4078 50.8501 92.918 27.7047 70.2324 27.7047Z" fill="#2B6CF5"/>
</svg>
