<svg width="42" height="40" viewBox="0 0 42 40" fill="none" xmlns="http://www.w3.org/2000/svg">
<path d="M9.17945 4.62283C9.2075 4.62283 9.96484 3.87952 10.7502 3.00997C11.4936 2.12641 12.2649 1.10259 11.7039 0.12085C11.7179 0.12085 10.8484 0.597695 10.1331 1.43919C9.40385 2.26666 8.8148 3.47279 9.17945 4.62283Z" fill="#9595D8"/>
<path d="M9.47424 4.23024C9.54436 4.23024 9.69864 2.56128 8.45042 1.91614C8.35225 1.93016 8.31017 4.34244 9.47424 4.23024Z" fill="#9595D8"/>
<path d="M9.17965 4.62283C9.1516 4.63686 9.97907 3.80939 11.045 3.3606C12.1108 2.88375 13.4292 2.77155 14.0042 3.73927C13.9341 3.72524 11.7602 4.98748 9.17965 4.62283Z" fill="#9595D8"/>
<path d="M11.9424 2.51916C11.9564 2.53318 12.3912 1.67767 13.4851 0.976422C14.537 0.261153 16.2761 -0.299842 17.8048 0.177004C17.8188 0.177004 17.0474 0.541651 15.9956 1.0185C14.9297 1.49534 13.5833 2.08439 11.9424 2.51916Z" fill="#9595D8"/>
<path d="M9.60034 4.34237C9.62839 4.21614 11.4096 4.28627 12.0266 5.46436C12.0827 5.42228 9.60034 5.26801 9.60034 4.34237Z" fill="#9595D8"/>
<path d="M6.6833 7.61018C6.69732 7.59616 7.27234 6.74064 7.77724 5.74487C8.25408 4.73508 8.64678 3.58504 7.73516 2.74355C7.69309 2.6594 5.18263 5.46437 6.6833 7.61018Z" fill="#9595D8"/>
<path d="M6.86549 7.17532C6.93562 7.16129 6.57097 5.50636 5.08433 5.12769C5.00018 5.16976 5.71545 7.52594 6.86549 7.17532Z" fill="#9595D8"/>
<path d="M6.68311 7.61018C6.66908 7.62421 7.25813 6.67052 8.19779 6.02537C9.12344 5.3662 10.3997 5.01558 11.3113 5.85707C11.2412 5.85707 9.46003 7.45591 6.68311 7.61018Z" fill="#9595D8"/>
<path d="M7.03394 7.2736C7.03394 7.13335 8.87119 6.86687 9.86696 7.89069C9.90903 7.83459 7.30041 8.15716 7.03394 7.2736Z" fill="#9595D8"/>
<path d="M4.91604 11.0182C4.93006 11.0041 5.32276 10.0504 5.54716 8.98454C5.75753 7.91865 5.81363 6.72654 4.60749 6.06737C4.56542 6.01127 2.81231 9.25102 4.91604 11.0182Z" fill="#9595D8"/>
<path d="M4.98607 10.5694C5.07022 10.5414 4.22873 9.01264 2.55977 8.95654C2.50367 8.99862 3.87811 11.1444 4.98607 10.5694Z" fill="#9595D8"/>
<path d="M4.91616 11.0182C4.90214 11.0322 5.26678 9.98034 6.0662 9.1669C6.83757 8.33943 8.04371 7.75038 9.24985 8.39553C9.19375 8.42358 7.80529 10.2749 4.91616 11.0182Z" fill="#9595D8"/>
<path d="M5.19651 10.6115C5.15443 10.4852 7.00571 9.84009 8.33808 10.6255C8.3521 10.5554 5.71543 11.4109 5.19651 10.6115Z" fill="#9595D8"/>
<path d="M3.89211 14.6927C3.90613 14.6787 4.10248 13.6689 4.07443 12.589C4.03236 11.5091 3.76588 10.345 2.33535 9.96636C2.29327 9.89623 1.28348 13.4445 3.89211 14.6927Z" fill="#9595D8"/>
<path d="M3.87827 14.2299C3.96242 14.1879 2.7142 12.8976 0.933043 13.1921C0.890969 13.2622 2.84043 15.0294 3.87827 14.2299Z" fill="#9595D8"/>
<path d="M3.90613 14.6927C3.8921 14.7208 4.04638 13.6128 4.6775 12.6591C5.29459 11.6914 6.38853 10.8779 7.83309 11.2566C7.77699 11.2706 6.79525 13.3323 3.90613 14.6927Z" fill="#9595D8"/>
<path d="M4.08866 14.23C4.01854 14.1178 5.81372 13.094 7.39853 13.5708C7.42658 13.5007 4.83198 14.8891 4.08866 14.23Z" fill="#9595D8"/>
<path d="M3.62588 18.4794C3.6399 18.4514 3.6399 17.4416 3.37343 16.3897C3.09293 15.3519 2.54596 14.286 0.947124 14.2299C0.877 14.1738 0.610527 17.8623 3.62588 18.4794Z" fill="#9595D8"/>
<path d="M3.49943 18.0447C3.58358 17.9886 1.98474 17.0069 0.175534 17.6941C0.147484 17.7783 2.57379 19.0686 3.49943 18.0447Z" fill="#9595D8"/>
<path d="M3.62586 18.4794C3.62586 18.5075 3.54171 17.3855 4.00453 16.3196C4.4393 15.2397 5.42104 14.2159 7.01988 14.272C6.9778 14.3141 6.40278 16.5019 3.62586 18.4794Z" fill="#9595D8"/>
<path d="M3.73798 17.9886C3.63981 17.8904 5.32279 16.5019 7.10395 16.5861C7.08993 16.5159 4.6496 18.4654 3.73798 17.9886Z" fill="#9595D8"/>
<path d="M4.08858 22.2662C4.08858 22.2381 3.89223 21.2424 3.41539 20.2746C2.91049 19.321 2.11107 18.4093 0.414062 18.7179C0.414062 18.7039 0.470162 19.6015 0.989083 20.499C1.49398 21.4107 2.48974 22.3083 4.08858 22.2662Z" fill="#9595D8"/>
<path d="M3.86408 21.8595C3.9342 21.7894 2.06889 21.1863 0.301758 22.2943C0.301758 22.2943 0.988977 22.5467 1.78839 22.5748C2.58781 22.6028 3.4854 22.4205 3.86408 21.8595Z" fill="#9595D8"/>
<path d="M4.08852 22.2661C4.08852 22.2942 3.794 21.2143 4.0745 20.0642C4.32695 18.9142 5.14039 17.68 6.8374 17.3715C6.79533 17.4135 6.62703 19.6575 4.08852 22.2661Z" fill="#9595D8"/>
<path d="M4.10263 21.7613C3.97641 21.6772 5.47707 19.9241 7.35641 19.6155C7.34238 19.5314 5.1545 21.9997 4.10263 21.7613Z" fill="#9595D8"/>
<path d="M5.29468 25.8846C5.29468 25.8566 4.90199 24.9169 4.21477 24.0754C3.4995 23.2479 2.48971 22.5467 0.764648 23.2339C0.764648 23.2199 0.989047 24.0894 1.71834 24.8608C2.41958 25.6322 3.63975 26.3054 5.29468 25.8846Z" fill="#9595D8"/>
<path d="M4.98607 25.5339C5.04217 25.4498 2.98051 25.2955 1.3396 26.7962C1.3396 26.7962 2.11097 26.8803 2.95246 26.7261C3.79395 26.5718 4.70557 26.1791 4.98607 25.5339Z" fill="#9595D8"/>
<path d="M5.29472 25.8706C5.29472 25.8986 4.78983 24.9029 4.85995 23.6967C4.90203 22.5046 5.51912 21.1021 7.24418 20.4149C7.20211 20.471 7.45456 22.6869 5.29472 25.8706Z" fill="#9595D8"/>
<path d="M5.2247 25.3657C5.08445 25.3096 6.31864 23.2339 8.22602 22.4766C8.18394 22.4064 6.36071 25.3657 5.2247 25.3657Z" fill="#9595D8"/>
<path d="M7.23017 29.1945C7.21614 29.1664 6.64112 28.3249 5.75756 27.6517C4.85996 27.0066 3.66785 26.5438 1.98486 27.6377C1.98486 27.6237 2.39158 28.4371 3.3032 29.0402C4.20079 29.6292 5.58926 30.0219 7.23017 29.1945Z" fill="#9595D8"/>
<path d="M6.85138 28.914C6.89346 28.8158 4.70558 29.1524 3.28906 31.0457C3.28906 31.0457 4.11653 30.9476 4.95802 30.597C5.81354 30.2463 6.68308 29.6433 6.85138 28.914Z" fill="#9595D8"/>
<path d="M7.24427 29.1944C7.2583 29.2225 6.529 28.3389 6.37473 27.1327C6.19241 25.9266 6.57108 24.4119 8.24004 23.304C8.21199 23.3601 8.87116 25.4778 7.24427 29.1944Z" fill="#9595D8"/>
<path d="M7.06198 28.7036C6.89368 28.6896 7.79127 26.3194 9.64256 25.0992C9.60048 25.0291 8.25409 28.4231 7.06198 28.7036Z" fill="#9595D8"/>
<path d="M9.92289 32.0695C9.90886 32.0415 9.12347 31.3262 8.07161 30.8634C7.00571 30.4286 5.67335 30.2463 4.13062 31.7329C4.13062 31.7189 4.70564 32.4342 5.77153 32.8269C6.82339 33.2336 8.36613 33.2897 9.92289 32.0695Z" fill="#9595D8"/>
<path d="M9.47418 31.8732C9.50223 31.761 7.27227 32.6305 6.16431 34.8745C6.16431 34.8745 7.0058 34.594 7.81924 34.019C8.64671 33.472 9.4321 32.6446 9.47418 31.8732Z" fill="#9595D8"/>
<path d="M9.92288 32.0695C9.93691 32.0976 8.99724 31.3683 8.60455 30.1902C8.1838 29.0261 8.28197 27.4133 9.81068 25.9126C9.81068 25.9827 10.8906 27.9182 9.92288 32.0695Z" fill="#9595D8"/>
<path d="M9.64246 31.6067C9.47416 31.6208 9.93698 29.0262 11.634 27.3572C11.5639 27.3011 10.8346 31.0317 9.64246 31.6067Z" fill="#9595D8"/>
<path d="M13.359 34.3556C13.345 34.3276 12.3493 33.7806 11.1431 33.5562C9.92295 33.3599 8.49241 33.5001 7.17407 35.3795C7.17407 35.3654 7.91739 35.9685 9.12353 36.1088C10.3297 36.2771 11.9706 35.9825 13.359 34.3556Z" fill="#9595D8"/>
<path d="M12.8401 34.2714C12.8401 34.1452 10.6802 35.5617 9.979 38.1143C10.0351 38.1984 13.1486 35.9404 12.8401 34.2714Z" fill="#9595D8"/>
<path d="M13.359 34.3556C13.3871 34.3836 12.237 33.8507 11.5638 32.7568C10.8766 31.6768 10.6663 30.0219 11.9706 28.1426C11.9706 28.1987 13.4853 29.8676 13.359 34.3556Z" fill="#9595D8"/>
<path d="M12.9664 33.949C12.784 34.0051 12.7279 31.2422 14.1725 29.1384C14.1725 29.1384 14.1024 30.0921 13.9621 31.1861C13.7938 32.294 13.5694 33.5422 12.9664 33.949Z" fill="#9595D8"/>
<path d="M17.5525 36.1929C17.5665 36.1648 17.847 35.169 17.7488 34.0611C17.6226 32.9391 17.1317 31.7329 14.9859 31.0597C14.9999 31.0457 14.6213 31.8592 14.7755 32.9531C14.9298 34.033 15.6311 35.3934 17.5525 36.1929Z" fill="#9595D8"/>
<path d="M17.6227 36.1648C17.6086 36.1648 17.5806 36.1648 17.5666 36.1648C9.89495 34.2575 4.52342 28.2548 3.54168 20.4991C2.54591 12.6591 6.2064 5.25401 12.8682 1.64962C12.9804 1.59352 13.1207 1.63559 13.1908 1.74779C13.2469 1.85999 13.2048 2.00024 13.0926 2.07036C6.5991 5.59061 3.02276 12.7994 4.0045 20.443C4.4533 23.9912 5.85578 27.245 8.07171 29.8817C10.47 32.7428 13.7939 34.7483 17.6788 35.716C17.805 35.7441 17.8751 35.8703 17.8471 35.9965C17.819 36.0947 17.7208 36.1648 17.6227 36.1648Z" fill="#4C4CC9"/>
<path d="M18.3941 35.5617C18.352 35.5477 16.7812 35.5898 15.0982 36.0666C13.4012 36.5715 11.592 37.5112 10.7926 39.9936C10.7786 39.9796 12.0689 40.1198 13.7238 39.5728C15.3787 39.0539 17.3843 37.8478 18.3941 35.5617Z" fill="#9595D8"/>
<path d="M32.5732 4.62283C32.5451 4.62283 31.7878 3.87952 31.0024 3.00997C30.2591 2.12641 29.4877 1.10259 30.0487 0.12085C30.0347 0.12085 30.9042 0.597695 31.6195 1.43919C32.3488 2.26666 32.9238 3.47279 32.5732 4.62283Z" fill="#9595D8"/>
<path d="M32.2787 4.23024C32.2086 4.23024 32.0543 2.56128 33.3025 1.91614C33.3867 1.93016 33.4288 4.34244 32.2787 4.23024Z" fill="#9595D8"/>
<path d="M32.5592 4.62283C32.5872 4.63686 31.7598 3.80939 30.6939 3.3606C29.628 2.88375 28.3096 2.77155 27.7346 3.73927C27.8188 3.72524 29.9926 4.98748 32.5592 4.62283Z" fill="#9595D8"/>
<path d="M29.8101 2.51916C29.7961 2.53318 29.3613 1.67767 28.2674 0.976422C27.2155 0.261153 25.4764 -0.299842 23.9477 0.177004C23.9337 0.177004 24.705 0.541651 25.7569 1.0185C26.8088 1.49534 28.1552 2.08439 29.8101 2.51916Z" fill="#9595D8"/>
<path d="M32.1385 4.34237C32.1105 4.21614 30.3293 4.28627 29.7122 5.46436C29.6701 5.42228 32.1525 5.26801 32.1385 4.34237Z" fill="#9595D8"/>
<path d="M35.0696 7.61018C35.0556 7.59616 34.4806 6.74064 33.9757 5.74487C33.4988 4.73508 33.1061 3.58504 34.0177 2.74355C34.0598 2.6594 36.5703 5.46437 35.0696 7.61018Z" fill="#9595D8"/>
<path d="M34.8873 7.17532C34.8172 7.16129 35.1818 5.50636 36.6685 5.12769C36.7386 5.16976 36.0373 7.52594 34.8873 7.17532Z" fill="#9595D8"/>
<path d="M35.0696 7.61018C35.0836 7.62421 34.4946 6.67052 33.5549 6.02537C32.6293 5.3662 31.353 5.01558 30.4414 5.85707C30.5115 5.85707 32.2787 7.45591 35.0696 7.61018Z" fill="#9595D8"/>
<path d="M34.719 7.2736C34.719 7.13335 32.8818 6.86687 31.886 7.89069C31.8439 7.83459 34.4385 8.15716 34.719 7.2736Z" fill="#9595D8"/>
<path d="M36.8365 11.0182C36.8225 11.0041 36.4298 10.0504 36.2054 8.98454C35.995 7.91865 35.939 6.72654 37.1451 6.06737C37.1872 6.01127 38.9403 9.25102 36.8365 11.0182Z" fill="#9595D8"/>
<path d="M36.7526 10.5694C36.6684 10.5414 37.5099 9.01264 39.1789 8.95654C39.235 8.99862 37.8605 11.1444 36.7526 10.5694Z" fill="#9595D8"/>
<path d="M36.8227 11.0182C36.8367 11.0322 36.4721 9.98034 35.6727 9.1669C34.9013 8.33943 33.6952 7.75038 32.489 8.39553C32.5591 8.42358 33.9336 10.2749 36.8227 11.0182Z" fill="#9595D8"/>
<path d="M36.5561 10.6115C36.5982 10.4852 34.7469 9.84009 33.4145 10.6255C33.3865 10.5554 36.0372 11.4109 36.5561 10.6115Z" fill="#9595D8"/>
<path d="M37.8464 14.6927C37.8324 14.6787 37.6361 13.6689 37.6641 12.589C37.7062 11.5091 37.9727 10.345 39.4032 9.96636C39.4593 9.89623 40.4691 13.4445 37.8464 14.6927Z" fill="#9595D8"/>
<path d="M37.8746 14.2299C37.7905 14.1879 39.0387 12.8976 40.8198 13.1921C40.8619 13.2622 38.9125 15.0294 37.8746 14.2299Z" fill="#9595D8"/>
<path d="M37.8466 14.6927C37.8607 14.7208 37.7064 13.6128 37.0753 12.6591C36.4582 11.6914 35.3642 10.8779 33.9197 11.2566C33.9758 11.2706 34.9575 13.3323 37.8466 14.6927Z" fill="#9595D8"/>
<path d="M37.65 14.23C37.7201 14.1178 35.925 13.094 34.3401 13.5708C34.3261 13.5007 36.9207 14.8891 37.65 14.23Z" fill="#9595D8"/>
<path d="M38.1271 18.4794C38.113 18.4514 38.113 17.4416 38.3795 16.3897C38.66 15.3519 39.207 14.286 40.8058 14.2299C40.8759 14.1738 41.1284 17.8623 38.1271 18.4794Z" fill="#9595D8"/>
<path d="M38.2532 18.0447C38.169 17.9886 39.7679 17.0069 41.5771 17.6941C41.6051 17.7783 39.1648 19.0686 38.2532 18.0447Z" fill="#9595D8"/>
<path d="M38.1269 18.4794C38.1269 18.5075 38.2111 17.3855 37.7483 16.3196C37.3135 15.2397 36.3317 14.2159 34.7329 14.272C34.775 14.3141 35.35 16.5019 38.1269 18.4794Z" fill="#9595D8"/>
<path d="M38.0147 17.9886C38.1128 17.8904 36.4298 16.5019 34.6487 16.5861C34.6627 16.5159 37.103 18.4654 38.0147 17.9886Z" fill="#9595D8"/>
<path d="M37.6643 22.2662C37.6643 22.2381 37.8607 21.2424 38.3375 20.2746C38.8424 19.321 39.6418 18.4093 41.3388 18.7179C41.3388 18.7039 41.2827 19.6015 40.7638 20.499C40.2449 21.4107 39.2491 22.3083 37.6643 22.2662Z" fill="#9595D8"/>
<path d="M37.8745 21.8595C37.8044 21.7894 39.6697 21.1863 41.4368 22.2943C41.4368 22.2943 40.7496 22.5467 39.9502 22.5748C39.1507 22.6028 38.2531 22.4205 37.8745 21.8595Z" fill="#9595D8"/>
<path d="M37.6642 22.2661C37.6642 22.2942 37.9587 21.2143 37.6782 20.0642C37.4257 18.9142 36.6123 17.68 34.9153 17.3715C34.9574 17.4135 35.1257 19.6575 37.6642 22.2661Z" fill="#9595D8"/>
<path d="M37.6361 21.7613C37.7623 21.6772 36.2617 19.9241 34.3823 19.6155C34.3963 19.5314 36.5842 21.9997 37.6361 21.7613Z" fill="#9595D8"/>
<path d="M36.458 25.8846C36.458 25.8566 36.8507 24.9169 37.5379 24.0754C38.2532 23.2479 39.263 22.5467 40.988 23.2339C40.988 23.2199 40.7636 24.0894 40.0344 24.8608C39.3191 25.6322 38.1129 26.3054 36.458 25.8846Z" fill="#9595D8"/>
<path d="M36.7526 25.5339C36.6965 25.4498 38.7581 25.2955 40.3991 26.7962C40.3991 26.7962 39.6277 26.8803 38.7862 26.7261C37.9587 26.5718 37.0471 26.1791 36.7526 25.5339Z" fill="#9595D8"/>
<path d="M36.458 25.8706C36.458 25.8986 36.9629 24.9029 36.8928 23.6967C36.8507 22.5046 36.2336 21.1021 34.5085 20.4149C34.5366 20.471 34.2982 22.6869 36.458 25.8706Z" fill="#9595D8"/>
<path d="M36.5282 25.3657C36.6684 25.3096 35.4342 23.2339 33.5269 22.4766C33.5549 22.4064 35.3781 25.3657 36.5282 25.3657Z" fill="#9595D8"/>
<path d="M34.5085 29.1945C34.5226 29.1664 35.0976 28.3249 35.9812 27.6517C36.8787 27.0066 38.0709 26.5438 39.7539 27.6377C39.7539 27.6237 39.3471 28.4371 38.4355 29.0402C37.5519 29.6292 36.1495 30.0219 34.5085 29.1945Z" fill="#9595D8"/>
<path d="M34.8873 28.914C34.8452 28.8158 37.0331 29.1524 38.4496 31.0457C38.4496 31.0457 37.6222 30.9476 36.7807 30.597C35.9392 30.2463 35.0696 29.6433 34.8873 28.914Z" fill="#9595D8"/>
<path d="M34.5085 29.1944C34.4945 29.2225 35.2238 28.3389 35.3781 27.1327C35.5604 25.9266 35.1817 24.4119 33.5128 23.304C33.5268 23.3601 32.8676 25.4778 34.5085 29.1944Z" fill="#9595D8"/>
<path d="M34.677 28.7036C34.8453 28.6896 33.9477 26.3194 32.0964 25.0992C32.1525 25.0291 33.4989 28.4231 34.677 28.7036Z" fill="#9595D8"/>
<path d="M31.8157 32.0695C31.8297 32.0415 32.6151 31.3262 33.667 30.8634C34.7328 30.4286 36.0652 30.2463 37.6079 31.7329C37.6079 31.7189 37.0329 32.4342 35.967 32.8269C34.9152 33.2336 33.3724 33.2897 31.8157 32.0695Z" fill="#9595D8"/>
<path d="M32.2786 31.8732C32.2505 31.761 34.4805 32.6305 35.5885 34.8745C35.5885 34.8745 34.747 34.594 33.9335 34.019C33.1061 33.472 32.3207 32.6446 32.2786 31.8732Z" fill="#9595D8"/>
<path d="M31.8158 32.0695C31.8018 32.0976 32.7415 31.3683 33.1342 30.1902C33.5549 29.0261 33.4567 27.4133 31.928 25.9126C31.942 25.9827 30.8481 27.9182 31.8158 32.0695Z" fill="#9595D8"/>
<path d="M32.0963 31.6067C32.2646 31.6208 31.8017 29.0262 30.1047 27.3572C30.1889 27.3011 30.9182 31.0317 32.0963 31.6067Z" fill="#9595D8"/>
<path d="M28.3938 34.3556C28.4078 34.3276 29.4036 33.7806 30.6097 33.5562C31.8299 33.3599 33.2604 33.5001 34.5788 35.3795C34.5788 35.3654 33.8355 35.9685 32.6293 36.1088C31.4232 36.2771 29.7823 35.9825 28.3938 34.3556Z" fill="#9595D8"/>
<path d="M28.9126 34.2714C28.9126 34.1452 31.0724 35.5617 31.7737 38.1143C31.7176 38.1984 28.6041 35.9404 28.9126 34.2714Z" fill="#9595D8"/>
<path d="M28.3937 34.3556C28.3656 34.3836 29.5157 33.8507 30.1889 32.7568C30.8761 31.6768 31.0865 30.0219 29.7822 28.1426C29.7681 28.1987 28.2534 29.8676 28.3937 34.3556Z" fill="#9595D8"/>
<path d="M28.7865 33.949C28.9688 34.0051 29.0249 31.2422 27.5803 29.1384C27.5803 29.1384 27.6504 30.0921 27.7907 31.1861C27.959 32.294 28.1694 33.5422 28.7865 33.949Z" fill="#9595D8"/>
<path d="M24.2003 36.1929C24.1863 36.1648 23.9058 35.169 24.004 34.0611C24.1302 32.9391 24.621 31.7329 26.7669 31.0597C26.7528 31.0457 27.1315 31.8592 26.9772 32.9531C26.8089 34.033 26.1077 35.3934 24.2003 36.1929Z" fill="#9595D8"/>
<path d="M24.1302 36.1648C24.018 36.1648 23.9338 36.0947 23.9058 35.9825C23.8777 35.8563 23.9479 35.7301 24.0741 35.702C27.959 34.7343 31.2689 32.7147 33.6811 29.8677C35.8971 27.245 37.2996 23.9772 37.7484 20.4289C38.7161 12.7854 35.1537 5.56255 28.6602 2.05633C28.548 2.00023 28.506 1.84595 28.5621 1.73375C28.6182 1.62156 28.7724 1.57948 28.8846 1.63558C35.5464 5.23997 39.221 12.6451 38.2252 20.485C37.2435 28.2408 31.8579 34.2434 24.2003 36.1508C24.1582 36.1648 24.1442 36.1648 24.1302 36.1648Z" fill="#4C4CC9"/>
<path d="M23.3447 35.5617C23.3868 35.5477 24.9576 35.5898 26.6406 36.0666C28.3376 36.5715 30.1468 37.5112 30.9462 39.9936C30.9602 39.9796 29.6699 40.1198 28.015 39.5728C26.3741 39.0539 24.3685 37.8478 23.3447 35.5617Z" fill="#9595D8"/>
<path d="M21.8442 4.80516L24.004 5.11371L22.4472 6.64242L22.8119 8.80225L20.8764 7.79246L18.941 8.80225L19.3056 6.64242L17.7349 5.11371L19.9087 4.80516L20.8764 2.84167L21.8442 4.80516Z" fill="#9595D8"/>
</svg>
