<svg width="36" height="40" viewBox="0 0 36 40" fill="none" xmlns="http://www.w3.org/2000/svg">
<path d="M35.2441 7.89325C34.011 7.85441 32.8169 7.64082 31.6615 7.29131C31.0887 7.12626 30.5159 6.9515 29.9819 6.69907C29.846 6.64082 29.7198 6.57286 29.5839 6.5049C29.4576 6.43694 29.3314 6.36898 29.1955 6.29131C28.9334 6.13597 28.6712 5.99033 28.4091 5.83499C27.8848 5.52431 27.3606 5.19422 26.8363 4.87383C26.5741 4.70878 26.3023 4.55344 26.0305 4.38839C25.7586 4.22334 25.4965 4.068 25.2149 3.90296C24.6615 3.58257 24.1178 3.2816 23.5256 3.00004C23.2246 2.86412 22.914 2.73791 22.5741 2.64082C22.244 2.55344 21.8848 2.49519 21.5353 2.51461C21.4091 2.52431 21.2926 2.61169 21.2538 2.74762C21.2149 2.91266 21.312 3.07771 21.4771 3.12626H21.4868C22.0305 3.27189 22.5256 3.56315 23.0207 3.89325L24.0305 4.60198C23.5159 4.31072 23.011 4.02917 22.4576 3.76703C22.1567 3.63111 21.846 3.5049 21.5062 3.40781C21.1858 3.32043 20.8557 3.27189 20.5159 3.2816C20.4479 3.25247 20.38 3.21363 20.312 3.18451C20.2732 3.26218 20.2538 3.33985 20.2246 3.41752C20.2052 3.44664 20.1955 3.47577 20.1858 3.5049C20.1761 3.54373 20.1761 3.58257 20.1761 3.61169C20.1664 3.66024 20.1567 3.69907 20.1567 3.74762C20.1567 3.75732 20.1567 3.75732 20.1567 3.76703C20.147 3.81558 20.147 3.86412 20.1373 3.90296C20.1373 3.91266 20.1373 3.92237 20.1373 3.94179C20.1275 3.99033 20.1275 4.02917 20.1178 4.07771C20.1178 4.09713 20.1178 4.12626 20.1081 4.14567C20.1081 4.15538 20.1081 4.15538 20.1081 4.16509C20.0984 4.26218 20.0887 4.35927 20.079 4.45635C20.0596 4.66995 20.0207 4.88354 20.0013 5.10684C19.9819 5.26218 19.9625 5.41752 19.9334 5.56315C19.9237 5.59228 19.9237 5.6214 19.914 5.65053C19.914 5.66024 19.9042 5.66995 19.9042 5.67965C19.8945 5.69907 19.8945 5.71849 19.8848 5.73791C19.8848 5.74762 19.8751 5.75732 19.8751 5.76703C19.8654 5.78645 19.8654 5.80587 19.8557 5.82529C19.8557 5.83499 19.846 5.8447 19.846 5.85441C19.8363 5.88354 19.8169 5.91266 19.8072 5.93208C19.7877 5.97092 19.7586 6.00975 19.7198 6.03888C19.7004 6.0583 19.6907 6.068 19.6712 6.08742C19.6518 6.09713 19.6421 6.11655 19.6227 6.12626C19.5936 6.14567 19.5741 6.16509 19.545 6.1748C19.5353 6.1748 19.5256 6.18451 19.5256 6.18451C19.4868 6.20393 19.4576 6.22334 19.4188 6.23305C19.3994 6.24276 19.38 6.25247 19.3508 6.26218C19.2149 6.31072 19.079 6.34956 18.9334 6.36897C18.914 6.36897 18.8945 6.37868 18.8751 6.37868C18.8363 6.38839 18.7974 6.38839 18.7489 6.3981C18.7004 6.40781 18.6615 6.40781 18.613 6.41752C18.5159 6.42723 18.4188 6.42723 18.312 6.41752V7.11655V7.57286V8.8447C18.4868 9.00975 18.6712 9.1748 18.8654 9.32043C19.3508 9.70878 19.8557 10.0486 20.3897 10.3496C20.9237 10.6505 21.4868 10.903 22.0693 11.0874C22.1761 11.1165 22.5353 11.2136 22.613 11.068C22.6712 10.9515 22.38 10.7185 22.2635 10.6505C22.0499 10.5243 21.846 10.3981 21.6421 10.2622C21.8654 10.3787 22.079 10.4855 22.312 10.5826C22.8751 10.8253 23.4674 10.9903 24.0499 11.1554C24.2246 11.2039 24.545 11.2039 24.5741 11.0486C24.5936 10.9224 24.3023 10.7282 24.1858 10.6699C24.1858 10.6699 24.1567 10.6505 24.1081 10.6311C24.1373 10.6408 24.1664 10.6505 24.1955 10.6699C24.7974 10.903 25.4285 11.0486 26.0499 11.1845C26.3314 11.2428 26.5256 11.1942 26.5741 11.0971C26.6615 10.9418 26.312 10.767 26.1858 10.7088C25.8266 10.5632 25.4674 10.3981 25.1178 10.2233C25.5741 10.3787 26.0402 10.5146 26.5159 10.602C27.1567 10.7379 27.7974 10.8059 28.4479 10.8156C28.7683 10.8156 28.914 10.7379 28.9334 10.6214C28.9625 10.4855 28.6421 10.3496 28.5062 10.3204C28.3897 10.2913 28.2829 10.2622 28.1664 10.2331C28.2343 10.2428 28.312 10.2622 28.38 10.2719C29.0207 10.3787 29.6712 10.4078 30.312 10.3981C30.6421 10.3884 30.7974 10.301 30.8266 10.1845C30.8654 10.0098 30.4868 9.92237 30.3508 9.90296C30.2829 9.89325 30.2149 9.87383 30.1373 9.86412C30.1664 9.86412 30.1858 9.87383 30.2149 9.87383C30.8654 9.93208 31.5159 9.94179 32.1567 9.87383C32.4674 9.83499 32.6421 9.73791 32.6518 9.6214C32.6712 9.46606 32.2926 9.38839 32.1567 9.36898C31.9625 9.34956 31.7683 9.32043 31.5644 9.29131C31.8072 9.31072 32.0499 9.32043 32.2926 9.32043C32.9431 9.32043 33.545 9.25247 34.1858 9.15538C34.4382 9.11655 34.6421 8.98063 34.6518 8.85441C34.6712 8.66995 34.3217 8.65053 34.1858 8.64082C33.6518 8.6214 33.1275 8.58257 32.6033 8.5049C32.8557 8.52431 33.1081 8.53402 33.3703 8.53402C34.0207 8.53402 34.6712 8.48548 35.3023 8.35927C35.5353 8.31072 35.7004 8.20393 35.7198 8.08742C35.7295 7.91266 35.38 7.89325 35.2441 7.89325Z" fill="#AB8E3F"/>
<g opacity="0.37">
<path d="M21.4479 10.2426C20.8654 9.37857 23.5061 10.3592 23.5061 10.3592C23.3314 9.71838 24.9819 10.2038 24.9819 10.2038C25.0692 9.66012 27.2634 10.0096 27.2634 10.0096C26.5838 9.43682 28.6032 9.55333 28.6032 9.55333C28.2246 8.99022 30.1663 9.06789 30.1663 9.06789C29.3896 8.42711 31.6226 8.35915 31.6226 8.35915C30.9527 7.79605 32.778 7.72808 33.5935 7.71838C32.9333 7.61158 32.2828 7.46595 31.6518 7.27177C31.0789 7.10673 30.5061 6.93197 29.9721 6.67954C29.8362 6.62129 29.71 6.55333 29.5741 6.48537C29.4479 6.41741 29.3217 6.34944 29.1857 6.27177C28.9236 6.11643 28.6615 5.9708 28.3993 5.81546C27.8751 5.50478 27.3508 5.17469 26.8265 4.8543C26.5644 4.68925 26.2925 4.53391 26.0207 4.36886C25.7488 4.20381 25.4867 4.04847 25.2052 3.88342C24.6518 3.56304 24.1081 3.26206 23.5158 2.98051C23.2149 2.84459 22.9042 2.71838 22.5644 2.62129C22.2343 2.53391 21.8751 2.47566 21.5255 2.49507C21.3993 2.50478 21.2828 2.59216 21.244 2.72808C21.2052 2.89313 21.3022 3.05818 21.4673 3.10673H21.477C22.0207 3.25236 22.5158 3.54362 23.011 3.87372L24.0207 4.58245C23.5061 4.29119 23.0013 4.00964 22.4479 3.7475C22.1469 3.61158 21.8362 3.48537 21.4964 3.38828C21.176 3.3009 20.8459 3.25236 20.5061 3.26206C20.4382 3.23294 20.3702 3.1941 20.3022 3.16498C20.2634 3.24265 20.244 3.32032 20.2149 3.39799C20.1954 3.42711 20.1857 3.45624 20.176 3.48537C20.1663 3.5242 20.1663 3.56304 20.1663 3.59216C20.1566 3.64071 20.1469 3.67954 20.1469 3.72808C20.1469 3.73779 20.1469 3.73779 20.1469 3.7475C20.1372 3.79605 20.1372 3.84459 20.1275 3.88342C20.1275 3.89313 20.1275 3.90284 20.1275 3.92226C20.1178 3.9708 20.1178 4.00964 20.1081 4.05818C20.1081 4.0776 20.1081 4.10673 20.0984 4.12614C20.0984 4.13585 20.0984 4.13585 20.0984 4.14556C20.0887 4.24265 20.0789 4.33973 20.0692 4.43682C20.0498 4.65041 20.011 4.86401 19.9916 5.08731C19.9721 5.24265 19.9527 5.39799 19.9236 5.54362C19.9139 5.57274 19.9139 5.60187 19.9042 5.631C19.9042 5.64071 19.8945 5.65041 19.8945 5.66012C19.8848 5.67954 19.8848 5.69896 19.8751 5.71838C19.8751 5.72808 19.8654 5.73779 19.8654 5.7475C19.8556 5.76692 19.8556 5.78634 19.8459 5.80575C19.8459 5.81546 19.8362 5.82517 19.8362 5.83488C19.8265 5.86401 19.8071 5.89313 19.7974 5.91255C19.778 5.95139 19.7488 5.99022 19.71 6.01935C19.6906 6.03876 19.6809 6.04847 19.6615 6.06789C19.6421 6.0776 19.6323 6.09702 19.6129 6.10673C19.5838 6.12614 19.5644 6.14556 19.5353 6.15527C19.5255 6.15527 19.5158 6.16498 19.5158 6.16498C19.477 6.1844 19.4479 6.20381 19.409 6.21352C19.3896 6.22323 19.3702 6.23294 19.3411 6.24265C19.2052 6.29119 19.0692 6.33003 18.9236 6.34944C18.9042 6.34944 18.8848 6.35915 18.8654 6.35915C18.8265 6.36886 18.7877 6.36886 18.7391 6.37857C18.6906 6.38828 18.6518 6.38828 18.6032 6.39799C18.5061 6.4077 18.409 6.4077 18.3022 6.39799V7.09702V7.55333V8.82517C18.477 8.99022 18.6615 9.15527 18.8556 9.3009C18.9527 9.37857 19.0401 9.44653 19.1372 9.5242C18.5644 8.631 21.4479 10.2426 21.4479 10.2426Z" fill="#AB8E3F"/>
</g>
<path d="M32.419 7.27186C30.0209 7.23303 26.4869 5.13594 26.0986 4.89322C25.9044 4.77672 25.7005 4.6505 25.5063 4.534C25.3025 4.41749 25.1083 4.29128 24.9044 4.17477C24.4966 3.93206 24.0889 3.70875 23.6423 3.49516C23.419 3.38837 23.186 3.29128 22.9335 3.21361C22.6811 3.13594 22.3122 3.02914 22.05 3.02914C21.9529 3.02914 21.6714 2.9806 21.6423 3.06798C21.6326 3.0874 21.351 3.01943 21.186 2.96118C21.0403 3.02914 20.9141 3.11652 20.7879 3.22332L20.7782 3.23303C20.7782 3.23303 20.7685 3.23303 20.7685 3.24274C20.6326 3.35924 20.186 4.19419 20.1277 4.44662C20.1277 4.45633 20.1277 4.46604 20.118 4.47574C20.118 4.48545 20.118 4.49516 20.1083 4.49516C20.0695 4.67963 20.0306 4.86409 19.9821 5.03885C19.9432 5.17477 19.9044 5.3107 19.8462 5.44662C20.0597 5.69905 19.8753 5.534 19.8364 5.48545C19.7394 5.71846 19.6034 5.94176 19.4093 6.10681C19.3995 6.11652 19.3995 6.11652 19.3898 6.12623C19.3607 6.14565 19.3316 6.17477 19.2928 6.19419C19.283 6.2039 19.2733 6.2039 19.2539 6.21361C19.1083 6.30099 18.9432 6.34953 18.7782 6.36895C18.7199 6.37866 18.6714 6.37866 18.6131 6.37866C18.6034 6.37866 18.5937 6.37866 18.5743 6.37866C18.5258 6.37866 18.4869 6.37866 18.4384 6.37866C18.419 6.37866 18.3995 6.37866 18.3801 6.37866C18.2733 6.36895 18.1568 6.35924 18.05 6.33982C17.9627 6.33011 17.885 6.3107 17.7976 6.28157C17.8267 6.33982 17.8462 6.39808 17.8753 6.45633C17.9141 6.54371 17.9627 6.64079 18.0112 6.72817C18.0597 6.81555 18.1083 6.91264 18.1568 7.00002C18.3607 7.35924 18.6034 7.68934 18.8559 8.00002C19.118 8.3107 19.3995 8.61167 19.7005 8.8738C20.0015 9.14565 20.3316 9.38837 20.6714 9.59225C20.7296 9.63109 20.9821 9.76701 21.05 9.70875C21.1471 9.62138 20.9044 9.41749 20.8364 9.35924C20.419 9.00973 20.0209 8.51458 19.6617 7.97089C19.9044 8.2039 20.1568 8.41749 20.419 8.61167C20.7976 8.90293 21.1957 9.15536 21.6228 9.37866C22.0403 9.60196 22.4772 9.79613 22.9238 9.94176C23.0015 9.97089 23.3219 10.0291 23.3413 9.95147C23.3898 9.80584 23.1374 9.67963 23.05 9.63108C22.4481 9.33011 21.8267 8.82526 21.2442 8.25244C21.5937 8.51458 21.9529 8.7573 22.3316 8.96118C22.7491 9.19419 23.186 9.38837 23.6326 9.55342C24.0792 9.71846 24.5355 9.84468 25.0015 9.92235C25.0889 9.93206 25.2928 9.97089 25.351 9.8738C25.4287 9.74759 25.186 9.63108 25.0889 9.60196C24.351 9.35924 23.5646 8.8738 22.8267 8.3107C23.1471 8.52429 23.4869 8.71846 23.8267 8.88351C24.2636 9.0971 24.7199 9.28157 25.1762 9.4272C25.6423 9.57283 26.1083 9.67963 26.5937 9.73788C26.6811 9.74759 26.8753 9.76701 26.9238 9.6505C26.9821 9.50487 26.7588 9.43691 26.6617 9.39808C25.9918 9.21361 25.2733 8.83497 24.5937 8.38837C24.7491 8.46604 24.9044 8.54371 25.0597 8.61167C25.5063 8.80584 25.9724 8.97089 26.4384 9.0874C26.9044 9.2039 27.3898 9.29128 27.8656 9.33011C27.9529 9.33982 28.1762 9.33982 28.2054 9.23303C28.2442 9.0971 28.0209 9.01943 27.9141 9.00002C27.2248 8.84468 26.4675 8.48545 25.7491 8.05827C25.9918 8.17477 26.2442 8.28157 26.4966 8.37866C26.9529 8.55342 27.419 8.68934 27.8947 8.78642C28.3704 8.88351 28.8559 8.94176 29.3316 8.95147C29.419 8.95147 29.6423 8.94176 29.6811 8.81555C29.7199 8.69905 29.4675 8.63108 29.3704 8.61167C28.4093 8.44662 27.3122 7.90293 26.3219 7.3107C26.3607 7.33011 26.4093 7.34953 26.4481 7.36895C26.9044 7.58254 27.3704 7.7573 27.8462 7.89322C28.3219 8.02914 28.817 8.12623 29.3025 8.19419C29.7976 8.25244 30.2928 8.28157 30.7782 8.25244C30.8656 8.24274 31.1374 8.22332 31.186 8.0971C31.2345 7.97089 30.9432 7.93206 30.7879 7.90293C30.0889 7.83497 29.3122 7.59225 28.5452 7.27186C28.8462 7.36895 29.1568 7.44662 29.4675 7.51458C29.9529 7.61167 30.4481 7.67963 30.9432 7.70876C31.4384 7.72817 31.9335 7.71846 32.419 7.6505C32.5063 7.64079 32.5743 7.57283 32.584 7.49516C32.6034 7.35924 32.5161 7.27186 32.419 7.27186Z" fill="#C9A74A"/>
<path opacity="0.42" d="M20.0886 6.66992C20.1954 6.83497 20.2537 6.89322 20.3799 7.01944C20.5352 7.17478 20.6906 7.33982 20.8653 7.49516C20.9333 7.56313 21.011 7.63109 21.0886 7.69905L21.1177 7.72817L21.2051 7.80584C21.2634 7.85439 21.3216 7.90293 21.3896 7.95148C21.7294 8.22332 22.1177 8.47575 22.5352 8.70876C22.7877 8.84468 23.0401 8.97089 23.3022 9.0874C22.011 8.22332 20.3896 6.80584 20.0886 6.66992Z" fill="white"/>
<path opacity="0.42" d="M20.8848 6.11658C21.0013 6.29133 21.0692 6.3593 21.2052 6.50493C21.3702 6.67968 21.5547 6.85444 21.7391 7.0292C21.8168 7.10687 21.9042 7.17483 21.9916 7.2525L22.0207 7.28163L22.1178 7.3593C22.1857 7.41755 22.244 7.46609 22.3217 7.52434C22.7003 7.82532 23.1372 8.10687 23.6032 8.3593C23.8848 8.51464 24.1663 8.65056 24.4576 8.77677C23.0207 7.82532 21.2149 6.26221 20.8848 6.11658Z" fill="white"/>
<path opacity="0.42" d="M21.2051 5.22327C21.3507 5.43686 21.4381 5.51453 21.6031 5.68929C21.807 5.89317 22.0303 6.10676 22.2633 6.32035C22.3604 6.40773 22.4672 6.49511 22.5643 6.58249L22.6031 6.62132L22.7196 6.71841C22.7973 6.78637 22.875 6.84463 22.9624 6.91259C23.4284 7.27181 23.9624 7.60191 24.5255 7.91259C24.8653 8.09705 25.2148 8.2621 25.574 8.40773C23.8361 7.2621 21.6128 5.40773 21.2051 5.22327Z" fill="white"/>
<path opacity="0.42" d="M21.7876 4.55334C21.9526 4.78635 22.04 4.86402 22.2245 5.04849C22.4478 5.27179 22.6905 5.49509 22.9332 5.7281C23.04 5.82519 23.1565 5.92228 23.2633 6.01936L23.3119 6.0582L23.4381 6.165C23.5255 6.23296 23.6128 6.30092 23.7002 6.36888C24.2051 6.75723 24.7779 7.11645 25.3992 7.44655C25.7682 7.64072 26.1468 7.81548 26.5352 7.98053C24.6323 6.74752 22.2342 4.74752 21.7876 4.55334Z" fill="white"/>
<path opacity="0.42" d="M22.5742 4.0874C22.7587 4.33012 22.8655 4.4175 23.0694 4.60197C23.3218 4.83498 23.6033 5.06798 23.8849 5.30099C24.0014 5.39808 24.1373 5.49517 24.2635 5.59226L24.3121 5.63109L24.4577 5.73789C24.5548 5.80585 24.6519 5.88352 24.7587 5.95148C25.3315 6.33983 25.9723 6.70876 26.6616 7.02915C27.0791 7.22332 27.4965 7.39808 27.9237 7.54371C25.7878 6.32041 23.0597 4.27187 22.5742 4.0874Z" fill="white"/>
<path opacity="0.42" d="M23.875 4.19421C24.0789 4.41751 24.1857 4.49518 24.4187 4.66023C24.6905 4.86412 24.9818 5.07771 25.2828 5.28159C25.409 5.36897 25.5449 5.45635 25.6808 5.54373L25.7294 5.57285L25.8847 5.66023C25.9915 5.71849 26.0886 5.78645 26.2051 5.8447C26.807 6.1845 27.4769 6.48548 28.1857 6.7379C28.6129 6.89324 29.04 7.01946 29.4769 7.13596C27.2439 6.12625 24.3701 4.33014 23.875 4.19421Z" fill="white"/>
<path opacity="0.42" d="M19.3604 7.12622C19.3992 7.18447 19.4477 7.23302 19.4963 7.29127L19.5254 7.3204L19.6031 7.40777C19.6516 7.46603 19.7099 7.52428 19.7584 7.58253C20.0594 7.90292 20.4089 8.2136 20.7875 8.50486C21.0205 8.67962 21.2536 8.83496 21.4963 8.9903C20.8167 8.35923 19.6613 7.14564 19.3604 7.12622Z" fill="white"/>
<path opacity="0.42" d="M18.6519 7.28162C18.8169 7.54375 19.0014 7.80589 19.215 8.06802C19.3703 8.25249 19.5354 8.43696 19.7101 8.61171C19.4674 8.25249 19.2344 7.88356 19.0305 7.50492C18.9528 7.35929 18.8169 7.28162 18.6519 7.28162Z" fill="white"/>
<g opacity="0.32">
<path d="M19.147 7.23304C18.8849 6.55342 19.914 6.96119 19.914 6.96119C19.7101 6.14566 20.6616 6.46604 20.6616 6.46604C20.1082 5.36896 20.8266 5.34954 20.8266 5.34954C20.4189 4.33983 21.2538 4.53401 21.2538 4.53401C21.0402 3.60197 21.9917 4.04857 21.9917 4.04857C21.7198 3.24274 23.2247 4.00973 23.2247 4.00973C23.2247 4.00973 22.681 3.39808 23.3703 3.35925C23.2247 3.301 23.0693 3.24274 22.914 3.1942C22.6616 3.11653 22.2926 3.00973 22.0305 3.00973C21.9334 3.00973 21.6519 2.96119 21.6227 3.04857C21.613 3.06799 21.3315 3.00002 21.1664 2.94177C21.0208 3.00973 20.8946 3.09711 20.7684 3.20391L20.7587 3.21362C20.7587 3.21362 20.7489 3.21362 20.7489 3.22333C20.613 3.33983 20.1664 4.17478 20.1082 4.42721C20.1082 4.43692 20.1082 4.44663 20.0985 4.45634C20.0985 4.46604 20.0985 4.47575 20.0888 4.47575C20.0499 4.66022 20.0111 4.84469 19.9625 5.01944C19.9237 5.15537 19.8266 5.43692 19.8363 5.43692C20.0402 5.67964 19.5839 5.92236 19.3897 6.0874C19.38 6.09711 19.38 6.09711 19.3703 6.10682C19.3412 6.12624 19.3121 6.15536 19.2732 6.17478C19.2635 6.18449 19.2538 6.18449 19.2344 6.1942C19.0888 6.28158 18.9237 6.33012 18.7587 6.34954C18.7004 6.35925 18.6519 6.35925 18.5936 6.35925C18.5839 6.35925 18.5742 6.35925 18.5548 6.35925C18.5062 6.35925 18.4674 6.35925 18.4189 6.35925C18.3994 6.35925 18.38 6.35925 18.3606 6.35925C18.2538 6.34954 18.1373 6.33983 18.0305 6.32041C17.9431 6.3107 17.8655 6.29129 17.7781 6.26216C17.8072 6.32041 17.8266 6.37867 17.8557 6.43692C17.8946 6.5243 17.9431 6.62138 17.9917 6.70876C18.0402 6.79614 18.0888 6.89323 18.1373 6.98061C18.147 7.00003 18.1664 7.01944 18.1761 7.03886C18.4771 6.43692 19.147 7.23304 19.147 7.23304Z" fill="#C9A74A"/>
</g>
<path opacity="0.17" d="M35.2343 8.12622C34.5352 8.1068 33.8459 8.03884 33.1857 7.92234C32.8168 7.85438 31.7294 8.04855 31.7877 8.18447C32.4964 8.38836 34.3216 8.36894 35.244 8.14564L35.2537 8.13593C35.244 8.13593 35.244 8.12622 35.2343 8.12622Z" fill="white"/>
<path opacity="0.17" d="M34.2246 8.87378C33.4771 8.85436 32.7392 8.7864 32.0305 8.6699C31.6324 8.60193 30.4771 8.79611 30.5353 8.93203C31.2926 9.13591 33.2441 9.1165 34.2344 8.8932L34.2441 8.88349C34.2344 8.88349 34.2344 8.87378 34.2246 8.87378Z" fill="white"/>
<path opacity="0.17" d="M32.3216 9.62145C31.6226 9.5632 30.9332 9.4564 30.273 9.30106C29.9041 9.21368 28.807 9.34961 28.8556 9.48553C29.5546 9.72825 31.3895 9.81563 32.3313 9.64087C32.3313 9.64087 32.341 9.64087 32.341 9.63116C32.341 9.63116 32.3313 9.62145 32.3216 9.62145Z" fill="white"/>
<path opacity="0.17" d="M30.545 10.1456C29.9236 10.068 29.3314 9.93203 28.7489 9.76699C28.4285 9.6699 27.4479 9.76699 27.4867 9.91262C28.0887 10.1748 29.7003 10.3204 30.545 10.1845C30.545 10.1845 30.5547 10.1845 30.5547 10.1748C30.5644 10.1553 30.5547 10.1456 30.545 10.1456Z" fill="white"/>
<path opacity="0.17" d="M28.6129 10.5826C28.0012 10.4661 27.409 10.3107 26.8362 10.1166C26.5158 10.0098 25.5352 10.0486 25.5644 10.1845C26.1566 10.4758 27.7585 10.6991 28.6032 10.6117C28.6032 10.6117 28.6129 10.6117 28.6129 10.602C28.6226 10.5923 28.6226 10.5826 28.6129 10.5826Z" fill="white"/>
<path opacity="0.17" d="M26.3992 11.0292C25.8652 10.8447 25.3604 10.6214 24.875 10.3593C24.6031 10.2136 23.7196 10.1165 23.7293 10.2427C24.2148 10.5826 25.6225 11.0097 26.3992 11.0486C26.3992 11.0486 26.4089 11.0486 26.4089 11.0389L26.3992 11.0292Z" fill="white"/>
<path opacity="0.17" d="M24.2633 10.9806C23.807 10.8058 23.3604 10.5923 22.9526 10.3592C22.7196 10.2233 21.9526 10.1068 21.9526 10.2233C22.3701 10.534 23.5837 10.9418 24.2633 11.0097C24.2633 11.0097 24.273 11.0097 24.273 11C24.273 10.9903 24.273 10.9806 24.2633 10.9806Z" fill="white"/>
<g opacity="0.17">
<path d="M19.4963 9.52429C19.7391 9.62138 19.9818 9.72818 20.2148 9.83497C20.4478 9.94177 20.6808 10.0583 20.9138 10.1748C21.1468 10.301 21.3701 10.4175 21.5934 10.5534C21.8167 10.6796 22.04 10.8156 22.2536 10.9709C21.9915 10.9224 21.7391 10.835 21.4963 10.7379C21.2536 10.6408 21.0206 10.5243 20.7876 10.3981C20.5643 10.2719 20.3313 10.1457 20.1177 10C19.9041 9.85439 19.6905 9.69905 19.4963 9.52429Z" fill="white"/>
</g>
<path d="M18.6421 6.06799C18.6906 6.10682 18.7392 6.12624 18.8071 6.12624C18.8654 6.13595 18.9334 6.12624 19.0013 6.10682C19.1372 6.06799 19.2732 5.9709 19.3217 5.88352C19.477 5.65051 19.4868 5.29129 19.4479 4.88352C19.4285 4.67964 19.3994 4.44663 19.4091 4.1942C19.4188 3.94177 19.4479 3.66022 19.5644 3.37867C19.6809 3.09711 19.8654 2.86411 20.0887 2.67964C20.3023 2.49517 20.5547 2.36896 20.7974 2.27187C21.0499 2.17478 21.312 2.12624 21.5741 2.11653C21.846 2.09711 22.0984 2.12624 22.3411 2.16508C22.8363 2.25245 23.2829 2.43692 23.6906 2.6311C24.1081 2.83498 24.4867 3.03886 24.8751 3.26216C25.2537 3.47576 25.6324 3.69906 26.011 3.92236C26.7683 4.36896 27.5062 4.80585 28.2634 5.22333C29.0207 5.6408 29.7877 6.01944 30.5741 6.34954C31.3605 6.66993 32.1761 6.93207 33.0207 7.08741C33.8557 7.25245 34.7101 7.301 35.5644 7.23304C35.6421 7.22333 35.9431 7.1942 35.9236 7.32042C35.9042 7.45634 35.6809 7.51459 35.6033 7.5243C34.7295 7.68935 33.8266 7.70877 32.9334 7.60197C32.4867 7.54372 32.0499 7.46605 31.613 7.36896C31.1761 7.26216 30.7489 7.13595 30.3314 6.99032C28.6421 6.40779 27.0887 5.54372 25.5644 4.69906C25.1858 4.48546 24.7974 4.28158 24.4188 4.0777C24.0401 3.87381 23.6518 3.66993 23.2829 3.49517C22.9042 3.32042 22.5353 3.18449 22.1664 3.12624C21.9819 3.09711 21.7974 3.08741 21.6324 3.09711C21.4576 3.10682 21.2926 3.14566 21.1275 3.20391C20.9722 3.26216 20.8266 3.33983 20.7003 3.43692C20.5838 3.53401 20.4965 3.6408 20.4285 3.76702C20.3023 4.00974 20.312 4.38838 20.312 4.84469C20.312 5.0777 20.3023 5.33012 20.244 5.58255C20.1858 5.83498 20.0693 6.11653 19.8751 6.33983C19.7683 6.46605 19.6324 6.55343 19.4965 6.61168C19.3605 6.66993 19.2149 6.70876 19.0693 6.71847C18.9236 6.72818 18.7683 6.71847 18.6227 6.66022C18.477 6.60197 18.3314 6.50488 18.244 6.36896C18.1664 6.25245 18.1955 6.10682 18.312 6.02915C18.3994 5.9709 18.5062 5.98061 18.5935 6.02915L18.6421 6.06799Z" fill="#E8C155"/>
<path opacity="0.46" d="M20.0984 4.10682C20.1178 3.85439 20.1566 3.60196 20.2343 3.35924C20.3217 3.05827 20.4479 2.83497 20.6906 2.63109C20.7391 2.59225 20.7877 2.55342 20.8362 2.52429C20.6129 2.61167 20.4187 2.72818 20.2537 2.8641C20.0595 3.02915 19.8945 3.24274 19.7974 3.47575C19.71 3.67963 19.6615 3.91264 19.6615 4.2039C19.6615 4.37866 19.6712 4.54371 19.6906 4.70876C19.7003 4.76701 19.7003 4.81555 19.7003 4.8641C19.7294 5.25245 19.7391 5.68934 19.5352 6.00002C19.4382 6.17478 19.2343 6.28157 19.0789 6.33012C19.0013 6.34953 18.9333 6.35924 18.8556 6.35924C18.8362 6.35924 18.8071 6.35924 18.7877 6.35924C18.6809 6.34953 18.5935 6.32041 18.5061 6.25245L18.477 6.23303L18.4673 6.24274C18.5255 6.33012 18.6226 6.39808 18.7294 6.44662C18.8168 6.47575 18.9042 6.49517 19.011 6.49517C19.0304 6.49517 19.0595 6.49517 19.0789 6.49517C19.1954 6.48546 19.3119 6.45633 19.4187 6.40779C19.5352 6.34953 19.642 6.28157 19.7197 6.18449C19.9042 5.9806 19.9916 5.71847 20.0401 5.534C20.1372 5.12623 20.0789 4.67963 20.0886 4.26216C20.0984 4.21361 20.0984 4.15536 20.0984 4.10682Z" fill="white"/>
<path opacity="0.46" d="M32.9916 7.32034C32.1858 7.165 31.3799 6.92229 30.5062 6.57277C29.7974 6.28151 29.0498 5.92229 28.1663 5.43685C27.4382 5.02908 26.71 4.6019 26.0013 4.18442L25.9139 4.13588C25.5741 3.9417 25.1761 3.70869 24.778 3.47568C24.3799 3.25238 24.011 3.0485 23.6129 2.85432C23.1275 2.62132 22.5935 2.38831 22.0401 2.38831C21.477 2.38831 20.9236 2.66986 20.6809 3.19413C20.7974 3.10675 20.943 3.03879 21.079 2.99025C21.2537 2.92229 21.4479 2.88345 21.6421 2.87374C21.6906 2.87374 21.7489 2.86403 21.7974 2.86403C21.9333 2.86403 22.079 2.87374 22.2343 2.90287C22.5838 2.96112 22.9722 3.08733 23.4091 3.29122C23.7392 3.44656 24.079 3.62132 24.4091 3.79607L24.5547 3.87374C24.9528 4.08733 25.3605 4.31064 25.7003 4.4951L25.8168 4.55335C27.2829 5.35918 28.8071 6.20384 30.4382 6.75724C30.8654 6.90287 31.2926 7.02908 31.7003 7.12617C32.1372 7.23297 32.5741 7.30093 32.9916 7.35918C33.1955 7.38831 33.4091 7.40772 33.6129 7.41743C33.3994 7.39801 33.1955 7.36889 32.9916 7.32034Z" fill="white"/>
<path d="M33.0306 7.61169C31.885 7.5146 30.7588 7.22334 29.6811 6.81557C28.6035 6.40781 27.5646 5.89324 26.5549 5.34955C25.5452 4.80586 24.5452 4.24276 23.5258 3.7282C23.2734 3.59227 23.0209 3.46606 22.7588 3.36897C22.4967 3.27188 22.2248 3.19421 21.953 3.16509C21.6811 3.13596 21.3996 3.16509 21.1277 3.25247C20.8656 3.34955 20.6132 3.49519 20.4675 3.74761C20.5258 3.61169 20.6132 3.49519 20.72 3.3981C20.8268 3.30101 20.953 3.22334 21.0889 3.16509C21.3607 3.03887 21.6617 2.99033 21.953 3.00975C22.5452 3.03887 23.1083 3.26218 23.6132 3.52431L24.3802 3.91266C24.6326 4.03887 24.885 4.18451 25.1374 4.32043C25.6423 4.59227 26.1471 4.87383 26.6423 5.14567C27.6423 5.69907 28.6617 6.22334 29.72 6.66023C30.2442 6.87383 30.7879 7.068 31.3413 7.23305C31.8947 7.41752 32.4578 7.52431 33.0306 7.61169Z" fill="#91632B"/>
<path d="M0.884868 7.95147C2.11788 7.91264 3.31205 7.69905 4.46739 7.34953C5.04021 7.18448 5.61302 7.00973 6.147 6.7573C6.28293 6.69905 6.40914 6.63109 6.54506 6.56312C6.67128 6.49516 6.79749 6.4272 6.93341 6.34953C7.19555 6.19419 7.45768 6.04856 7.71982 5.89322C8.24409 5.58254 8.76836 5.25244 9.29264 4.93206C9.55477 4.76701 9.82662 4.61167 10.0985 4.44662C10.3703 4.28157 10.6324 4.12623 10.914 3.96118C11.4674 3.64079 12.0111 3.33982 12.6033 3.05827C12.9043 2.92235 13.215 2.79613 13.5548 2.69905C13.8849 2.61167 14.2441 2.55342 14.5936 2.57283C14.7198 2.58254 14.8363 2.66992 14.8752 2.80584C14.914 2.97089 14.8169 3.13594 14.6519 3.18448H14.6422C14.0985 3.33011 13.6033 3.62138 13.1082 3.95147L12.0985 4.66021C12.613 4.36895 13.1179 4.0874 13.6713 3.82526C13.9722 3.68934 14.2829 3.56312 14.6227 3.46604C14.9431 3.37866 15.2732 3.33012 15.613 3.33982C15.681 3.3107 15.7489 3.27186 15.8169 3.24274C15.8557 3.32041 15.8752 3.39808 15.9043 3.47575C15.9237 3.50487 15.9334 3.534 15.9431 3.56312C15.9528 3.60196 15.9528 3.64079 15.9528 3.66992C15.9625 3.71846 15.9722 3.7573 15.9722 3.80584C15.9722 3.81555 15.9722 3.81555 15.9722 3.82526C15.982 3.8738 15.982 3.92235 15.9917 3.96118C15.9917 3.97089 15.9917 3.9806 15.9917 4.00002C16.0014 4.04856 16.0014 4.0874 16.0111 4.13594C16.0111 4.15536 16.0111 4.18448 16.0208 4.2039C16.0208 4.21361 16.0208 4.21361 16.0208 4.22332C16.0305 4.32041 16.0402 4.41749 16.0499 4.51458C16.0693 4.72817 16.1082 4.94177 16.1276 5.16507C16.147 5.32041 16.1664 5.47575 16.1955 5.62138C16.2053 5.6505 16.2053 5.67963 16.215 5.70876C16.215 5.71846 16.2247 5.72817 16.2247 5.73788C16.2344 5.7573 16.2344 5.77672 16.2441 5.79613C16.2441 5.80584 16.2538 5.81555 16.2538 5.82526C16.2635 5.84468 16.2635 5.8641 16.2732 5.88351C16.2732 5.89322 16.2829 5.90293 16.2829 5.91264C16.2926 5.94177 16.3121 5.97089 16.3218 5.99031C16.3412 6.02914 16.3703 6.06798 16.4091 6.09711C16.4286 6.11652 16.4383 6.12623 16.4577 6.14565C16.4771 6.15536 16.4868 6.17478 16.5062 6.18448C16.5354 6.2039 16.5548 6.22332 16.5839 6.23303C16.5936 6.23303 16.6033 6.24274 16.6033 6.24274C16.6422 6.26215 16.6713 6.28157 16.7101 6.29128C16.7295 6.30099 16.7489 6.3107 16.7781 6.32041C16.914 6.36895 17.0499 6.40778 17.1955 6.4272C17.215 6.4272 17.2344 6.43691 17.2538 6.43691C17.2926 6.44662 17.3315 6.44662 17.38 6.45633C17.4286 6.46604 17.4674 6.46604 17.5159 6.47575C17.613 6.48545 17.7101 6.48545 17.8169 6.47575V7.17478V7.63109V8.93206C17.6422 9.09711 17.4577 9.26215 17.2635 9.40778C16.7781 9.79613 16.2732 10.1359 15.7392 10.4369C15.2053 10.7379 14.6422 10.9903 14.0596 11.1748C13.9528 11.2039 13.5936 11.301 13.5159 11.1554C13.4577 11.0389 13.7489 10.8058 13.8655 10.7379C14.079 10.6117 14.2829 10.4855 14.4868 10.3495C14.2635 10.466 14.0499 10.5728 13.8169 10.6699C13.2538 10.9126 12.6616 11.0777 12.079 11.2427C11.9043 11.2913 11.5839 11.2913 11.5548 11.1359C11.5354 11.0097 11.8266 10.8156 11.9431 10.7573C11.9431 10.7573 11.9722 10.7379 12.0208 10.7185C11.9917 10.7282 11.9625 10.7379 11.9334 10.7573C11.3315 10.9903 10.7004 11.1359 10.079 11.2719C9.79749 11.3301 9.60331 11.2816 9.55477 11.1845C9.46739 11.0291 9.81691 10.8544 9.94312 10.7961C10.3023 10.6505 10.6616 10.4855 11.0111 10.3107C10.5548 10.466 10.0888 10.602 9.61302 10.6893C8.97225 10.8253 8.33147 10.8932 7.68098 10.9029C7.3606 10.9029 7.21497 10.8253 7.19555 10.7088C7.16642 10.5728 7.48681 10.4369 7.62273 10.4078C7.73924 10.3787 7.84603 10.3495 7.96254 10.3204C7.89458 10.3301 7.81691 10.3495 7.74895 10.3592C7.10817 10.466 6.45768 10.4952 5.81691 10.4855C5.48681 10.4757 5.33147 10.3884 5.30234 10.2719C5.26351 10.0971 5.64215 10.0097 5.77807 9.99031C5.84603 9.9806 5.91399 9.96118 5.99166 9.95147C5.96254 9.95147 5.94312 9.96118 5.91399 9.96118C5.26351 10.0194 4.61302 10.0291 3.97225 9.96118C3.66157 9.92235 3.48681 9.82526 3.4771 9.70876C3.45768 9.55342 3.83632 9.47575 3.97225 9.45633C4.16642 9.43691 4.3606 9.40778 4.56448 9.37866C4.32176 9.39808 4.07904 9.40778 3.83632 9.40778C3.18584 9.40778 2.5839 9.33982 1.94312 9.24274C1.69069 9.2039 1.48681 9.06798 1.4771 8.94177C1.45768 8.7573 1.8072 8.73788 1.94312 8.72817C2.4771 8.70876 3.00137 8.66992 3.52564 8.59225C3.27322 8.61167 3.02079 8.62138 2.75865 8.62138C2.10817 8.62138 1.45768 8.57283 0.826615 8.44662C0.593605 8.39808 0.428557 8.29128 0.409139 8.17478C0.399431 7.97089 0.739236 7.95147 0.884868 7.95147Z" fill="#AB8E3F"/>
<g opacity="0.37">
<path d="M14.6713 10.301C15.2538 9.43692 12.613 10.4175 12.613 10.4175C12.7878 9.77673 11.1373 10.2622 11.1373 10.2622C11.0499 9.71847 8.85573 10.068 8.85573 10.068C9.53534 9.49517 7.51593 9.61168 7.51593 9.61168C7.89457 9.04857 5.95282 9.12624 5.95282 9.12624C6.72952 8.48546 4.49651 8.4175 4.49651 8.4175C5.16641 7.8544 3.34117 7.78643 2.52563 7.77673C3.18583 7.66993 3.83631 7.5243 4.46738 7.33012C5.0402 7.16508 5.61301 6.99032 6.14699 6.73789C6.28292 6.67964 6.40913 6.61168 6.54505 6.54372C6.67127 6.47575 6.79748 6.40779 6.9334 6.33012C7.19554 6.17478 7.45767 6.02915 7.71981 5.87381C8.24408 5.56313 8.76835 5.23304 9.29262 4.91265C9.55476 4.7476 9.8266 4.59226 10.0984 4.42721C10.3703 4.26216 10.6324 4.10682 10.914 3.94177C11.4674 3.62139 12.0111 3.32041 12.6033 3.03886C12.9043 2.90294 13.215 2.77673 13.5548 2.67964C13.8849 2.59226 14.2441 2.53401 14.5936 2.55342C14.7198 2.56313 14.8363 2.65051 14.8751 2.78643C14.914 2.95148 14.8169 3.11653 14.6518 3.16507H14.6421C14.0984 3.31071 13.6033 3.60197 13.1082 3.93207L12.0984 4.6408C12.613 4.34954 13.1179 4.06799 13.6713 3.80585C13.9722 3.66993 14.2829 3.54372 14.6227 3.44663C14.9431 3.35925 15.2732 3.31071 15.613 3.32041C15.681 3.29129 15.7489 3.25245 15.8169 3.22333C15.8557 3.301 15.8751 3.37867 15.9043 3.45634C15.9237 3.48546 15.9334 3.51459 15.9431 3.54372C15.9528 3.58255 15.9528 3.62139 15.9528 3.65051C15.9625 3.69906 15.9722 3.73789 15.9722 3.78643C15.9722 3.79614 15.9722 3.79614 15.9722 3.80585C15.9819 3.8544 15.9819 3.90294 15.9917 3.94177C15.9917 3.95148 15.9917 3.96119 15.9917 3.98061C16.0014 4.02915 16.0014 4.06799 16.0111 4.11653C16.0111 4.13595 16.0111 4.16507 16.0208 4.18449C16.0208 4.1942 16.0208 4.1942 16.0208 4.20391C16.0305 4.301 16.0402 4.39808 16.0499 4.49517C16.0693 4.70876 16.1082 4.92236 16.1276 5.14566C16.147 5.301 16.1664 5.45634 16.1955 5.60197C16.2052 5.63109 16.2052 5.66022 16.215 5.68935C16.215 5.69906 16.2247 5.70876 16.2247 5.71847C16.2344 5.73789 16.2344 5.75731 16.2441 5.77673C16.2441 5.78643 16.2538 5.79614 16.2538 5.80585C16.2635 5.82527 16.2635 5.84469 16.2732 5.8641C16.2732 5.87381 16.2829 5.88352 16.2829 5.89323C16.2926 5.92236 16.312 5.95148 16.3218 5.9709C16.3412 6.00974 16.3703 6.04857 16.4091 6.0777C16.4285 6.09711 16.4383 6.10682 16.4577 6.12624C16.4771 6.13595 16.4868 6.15537 16.5062 6.16508C16.5353 6.18449 16.5548 6.20391 16.5839 6.21362C16.5936 6.21362 16.6033 6.22333 16.6033 6.22333C16.6421 6.24274 16.6713 6.26216 16.7101 6.27187C16.7295 6.28158 16.7489 6.29129 16.7781 6.301C16.914 6.34954 17.0499 6.38838 17.1955 6.40779C17.215 6.40779 17.2344 6.4175 17.2538 6.4175C17.2926 6.42721 17.3315 6.42721 17.38 6.43692C17.4285 6.44663 17.4674 6.44663 17.5159 6.45634C17.613 6.46605 17.7101 6.46605 17.8169 6.45634V7.15537V7.61168V8.93207C17.6421 9.09711 17.4577 9.26216 17.2635 9.40779C17.1664 9.48546 17.079 9.55342 16.9819 9.63109C17.5548 8.68935 14.6713 10.301 14.6713 10.301Z" fill="#AB8E3F"/>
</g>
<path d="M3.71023 7.33009C6.09858 7.28155 9.64227 5.19417 10.0306 4.95145C10.2248 4.83494 10.4287 4.70873 10.6229 4.59222C10.8267 4.47572 11.0209 4.34951 11.2248 4.233C11.6326 3.99028 12.0403 3.76698 12.4869 3.55339C12.7102 3.44659 12.9432 3.34951 13.1957 3.27184C13.4481 3.19417 13.817 3.08737 14.0792 3.08737C14.1762 3.08737 14.4578 3.03883 14.4869 3.12621C14.4966 3.14562 14.7782 3.07766 14.9432 3.01941C15.0889 3.08737 15.2151 3.17475 15.3413 3.28155L15.351 3.29125L15.3607 3.30096C15.4966 3.41747 15.9432 4.25242 16.0015 4.50485C16.0015 4.51455 16.0015 4.52426 16.0112 4.53397C16.0112 4.54368 16.0112 4.55339 16.0209 4.55339C16.0597 4.73786 16.0986 4.92232 16.1471 5.09708C16.186 5.233 16.2248 5.36892 16.283 5.50485C16.0695 5.75727 16.2539 5.59222 16.2928 5.54368C16.3898 5.77669 16.5258 5.99999 16.7199 6.16504C16.7296 6.17475 16.7296 6.17475 16.7394 6.18446C16.7685 6.20388 16.7976 6.233 16.8364 6.25242C16.8462 6.26213 16.8559 6.26213 16.8753 6.27184C17.0209 6.35922 17.186 6.40776 17.351 6.42718C17.4093 6.43688 17.4578 6.43689 17.5161 6.43689C17.5258 6.43689 17.5355 6.43689 17.5549 6.43689C17.6034 6.43689 17.6423 6.43689 17.6908 6.43689C17.7102 6.43689 17.7296 6.43689 17.7491 6.43689C17.8559 6.42718 17.9724 6.41747 18.0792 6.39805C18.1665 6.38834 18.2442 6.36892 18.3316 6.3398C18.3025 6.39805 18.283 6.4563 18.2539 6.51455C18.2151 6.60193 18.1665 6.69902 18.118 6.7864C18.0695 6.87378 18.0209 6.97087 17.9724 7.05824C17.7685 7.41747 17.5258 7.74756 17.2733 8.05824C17.0112 8.36892 16.7296 8.6699 16.4287 8.93203C16.1277 9.20388 15.7976 9.44659 15.4578 9.65048C15.3995 9.68931 15.1471 9.82523 15.0792 9.76698C14.9821 9.6796 15.2248 9.47572 15.2928 9.41747C15.7102 9.06795 16.1083 8.57281 16.4675 8.02912C16.2248 8.26213 15.9724 8.47572 15.7102 8.6699C15.3316 8.96116 14.9335 9.21358 14.5063 9.43688C14.0889 9.66019 13.652 9.85436 13.2054 9.99999C13.1277 10.0291 12.8073 10.0874 12.7879 10.0097C12.7394 9.86407 12.9918 9.73786 13.0792 9.68931C13.6908 9.38834 14.3219 8.87378 14.9044 8.31067C14.5549 8.57281 14.1957 8.81553 13.817 9.01941C13.3996 9.25242 12.9627 9.44659 12.5161 9.61164C12.0695 9.77669 11.6131 9.9029 11.1471 9.98058C11.0597 9.99028 10.8559 10.0291 10.7976 9.93203C10.7199 9.80582 10.9627 9.68931 11.0597 9.66019C11.7976 9.41747 12.584 8.93203 13.3219 8.36892C13.0015 8.58252 12.6617 8.77669 12.3219 8.94174C11.885 9.15533 11.4287 9.3398 10.9724 9.48543C10.5063 9.63106 10.0403 9.73786 9.55489 9.79611C9.46751 9.80582 9.27334 9.82523 9.22479 9.70873C9.16654 9.5631 9.38984 9.49514 9.48693 9.4563C10.1568 9.27184 10.8753 8.8932 11.5549 8.44659C11.3996 8.52426 11.2442 8.60193 11.0889 8.6699C10.6423 8.86407 10.1762 9.02912 9.71023 9.14562C9.24421 9.26213 8.75877 9.34951 8.28305 9.38834C8.19567 9.39805 7.97237 9.39805 7.94324 9.29125C7.90441 9.15533 8.12771 9.08737 8.2345 9.05824C8.92382 8.9029 9.6811 8.54368 10.3996 8.1165C10.1568 8.233 9.90441 8.3398 9.65198 8.43689C9.19567 8.61164 8.72965 8.74756 8.25392 8.84465C7.77819 8.94174 7.29276 8.99999 6.81703 9.0097C6.72965 9.0097 6.50635 8.99999 6.46751 8.87378C6.42868 8.75727 6.6811 8.68931 6.77819 8.6699C7.73936 8.50485 8.83644 7.96116 9.82674 7.36892C9.7879 7.38834 9.73936 7.40776 9.70052 7.42718C9.24421 7.64077 8.77819 7.81553 8.30246 7.95145C7.82674 8.08737 7.33159 8.18446 6.84615 8.25242C6.35101 8.31067 5.85586 8.3398 5.37042 8.31067C5.28305 8.30096 5.0112 8.28155 4.96266 8.15533C4.91411 8.02912 5.20538 7.99028 5.36072 7.96116C6.05975 7.8932 6.83644 7.65048 7.60343 7.33009C7.30246 7.42718 6.99178 7.50485 6.6811 7.57281C6.19567 7.6699 5.70052 7.73786 5.20538 7.76698C4.71023 7.7864 4.21509 7.77669 3.72965 7.70873C3.64227 7.69902 3.57431 7.63106 3.5646 7.55339C3.52577 7.41747 3.60344 7.33009 3.71023 7.33009Z" fill="#C9A74A"/>
<path opacity="0.42" d="M16.0305 6.72815C15.9237 6.8932 15.8654 6.95145 15.7392 7.07766C15.5839 7.233 15.4285 7.39805 15.2538 7.55339C15.1858 7.62135 15.1082 7.68931 15.0305 7.75728L15.0014 7.7864L14.914 7.86407C14.8557 7.91262 14.7975 7.96116 14.7295 8.0097C14.3897 8.28155 14.0014 8.53397 13.5839 8.76698C13.3315 8.90291 13.079 9.02912 12.8169 9.14562C14.1082 8.28155 15.7392 6.86407 16.0305 6.72815Z" fill="white"/>
<path opacity="0.42" d="M15.2442 6.1748C15.1277 6.34956 15.0597 6.41752 14.9238 6.56315C14.7588 6.73791 14.5743 6.91267 14.3898 7.08743C14.3122 7.1651 14.2248 7.23306 14.1374 7.31073L14.1083 7.33985L14.0112 7.41752C13.9432 7.47578 13.885 7.52432 13.8073 7.58257C13.4287 7.88354 12.9918 8.1651 12.5258 8.41752C12.2442 8.57286 11.9626 8.70879 11.6714 8.835C13.0986 7.88354 14.9141 6.32044 15.2442 6.1748Z" fill="white"/>
<path opacity="0.42" d="M14.9139 5.28149C14.7682 5.49509 14.6808 5.57276 14.5158 5.74751C14.3119 5.9514 14.0886 6.16499 13.8556 6.37858C13.7585 6.46596 13.6517 6.55334 13.5546 6.64072L13.5158 6.67955L13.3993 6.77664C13.3216 6.8446 13.244 6.90285 13.1566 6.97081C12.6906 7.33004 12.1566 7.66014 11.5935 7.97081C11.2537 8.15528 10.9041 8.32033 10.5449 8.46596C12.2925 7.32033 14.5061 5.46596 14.9139 5.28149Z" fill="white"/>
<path opacity="0.42" d="M14.3313 4.61169C14.1663 4.8447 14.0789 4.92237 13.8944 5.10684C13.6711 5.33014 13.4284 5.55344 13.1857 5.78645C13.0789 5.88354 12.9624 5.98063 12.8556 6.07771L12.807 6.11655L12.6808 6.22334C12.5934 6.29131 12.5061 6.35927 12.4187 6.42723C11.9138 6.81558 11.341 7.1748 10.7197 7.5049C10.3507 7.69907 9.97209 7.87383 9.58374 8.03888C11.4867 6.80587 13.8944 4.80587 14.3313 4.61169Z" fill="white"/>
<path opacity="0.42" d="M13.5546 4.14563C13.3701 4.38835 13.2633 4.47573 13.0594 4.66019C12.807 4.8932 12.5255 5.12621 12.2439 5.35922C12.1274 5.45631 11.9915 5.5534 11.8653 5.65048L11.8167 5.68932L11.6711 5.79612C11.574 5.86408 11.4769 5.94175 11.3701 6.00971C10.7973 6.39806 10.1565 6.76699 9.46721 7.08738C9.04974 7.28155 8.63226 7.45631 8.20508 7.60194C10.3313 6.38835 13.0594 4.3301 13.5546 4.14563Z" fill="white"/>
<path opacity="0.42" d="M12.2538 4.25244C12.0499 4.47574 11.9431 4.55341 11.7101 4.71846C11.4383 4.92234 11.147 5.13594 10.846 5.33982C10.7198 5.4272 10.5839 5.51458 10.448 5.60196L10.3994 5.63108L10.2441 5.71846C10.1373 5.77671 10.0402 5.84467 9.9237 5.90293C9.32176 6.24273 8.66156 6.5437 7.94312 6.79613C7.51593 6.95147 7.08875 7.07768 6.65186 7.19419C8.87516 6.18448 11.7587 4.39807 12.2538 4.25244Z" fill="white"/>
<path opacity="0.42" d="M16.7587 7.18445C16.7199 7.2427 16.6713 7.29124 16.6228 7.33979L16.5937 7.36891L16.516 7.45629C16.4675 7.51455 16.4092 7.5728 16.3607 7.63105C16.0597 7.95144 15.7102 8.26212 15.3315 8.55338C15.0985 8.72814 14.8655 8.88348 14.6228 9.03882C15.3121 8.42717 16.4675 7.20387 16.7587 7.18445Z" fill="white"/>
<path opacity="0.42" d="M17.477 7.33984C17.3119 7.60198 17.1274 7.86412 16.9138 8.12625C16.7585 8.31072 16.5935 8.49518 16.4187 8.66994C16.6614 8.31072 16.8944 7.94179 17.0983 7.56315C17.1663 7.41751 17.3119 7.33984 17.477 7.33984Z" fill="white"/>
<g opacity="0.32">
<path d="M16.9723 7.30103C17.2345 6.62142 16.2053 7.02918 16.2053 7.02918C16.4092 6.21365 15.4578 6.53404 15.4578 6.53404C16.0112 5.43695 15.2927 5.41753 15.2927 5.41753C15.7005 4.40782 14.8655 4.602 14.8655 4.602C15.0791 3.66996 14.1277 4.11656 14.1277 4.11656C14.4092 3.31074 12.8947 4.07773 12.8947 4.07773C12.8947 4.07773 13.4383 3.46608 12.749 3.42724C12.8947 3.36899 13.05 3.31074 13.2053 3.26219C13.4578 3.18452 13.8267 3.07773 14.0888 3.07773C14.1859 3.07773 14.4675 3.02918 14.4966 3.11656C14.5063 3.13598 14.7879 3.06802 14.9529 3.00977C15.0985 3.07773 15.2248 3.16511 15.351 3.2719L15.3607 3.28161L15.3704 3.29132C15.5063 3.40782 15.9529 4.24278 16.0112 4.4952C16.0112 4.50491 16.0112 4.51462 16.0209 4.52433C16.0209 4.53404 16.0209 4.54375 16.0306 4.54375C16.0694 4.72821 16.1082 4.91268 16.1568 5.08744C16.1956 5.22336 16.2927 5.50491 16.283 5.50491C16.0791 5.74763 16.5354 5.99035 16.7296 6.1554C16.7393 6.16511 16.7393 6.16511 16.749 6.17481C16.7781 6.19423 16.8073 6.22336 16.8461 6.24278C16.8558 6.25248 16.8655 6.25248 16.8849 6.26219C17.0306 6.34957 17.1956 6.39811 17.3607 6.41753C17.4189 6.42724 17.4675 6.42724 17.5257 6.42724C17.5354 6.42724 17.5451 6.42724 17.5646 6.42724C17.6131 6.42724 17.6519 6.42724 17.7005 6.42724C17.7199 6.42724 17.7393 6.42724 17.7587 6.42724C17.8655 6.41753 17.982 6.40782 18.0888 6.38841C18.1762 6.3787 18.2539 6.35928 18.3413 6.33015C18.3121 6.38841 18.2927 6.44666 18.2636 6.50491C18.2248 6.59229 18.1762 6.68938 18.1277 6.77676C18.0791 6.86413 18.0306 6.96122 17.982 7.0486C17.9723 7.06802 17.9529 7.08744 17.9432 7.10685C17.6519 6.4952 16.9723 7.30103 16.9723 7.30103Z" fill="#C9A74A"/>
</g>
<path opacity="0.17" d="M0.894418 8.18445C1.59345 8.16503 2.28277 8.09707 2.94296 7.98056C3.31189 7.9126 4.39927 8.10678 4.34102 8.2427C3.63228 8.44658 1.80704 8.42717 0.884709 8.20387L0.875 8.19416C0.875 8.19416 0.884709 8.18445 0.894418 8.18445Z" fill="white"/>
<path opacity="0.17" d="M1.90418 8.93201C2.65176 8.91259 3.38962 8.84463 4.09836 8.72812C4.49642 8.66016 5.65176 8.85434 5.5935 8.99026C4.83622 9.19414 2.88477 9.17472 1.89447 8.95142L1.88477 8.94171C1.88477 8.94171 1.89447 8.94172 1.90418 8.93201Z" fill="white"/>
<path opacity="0.17" d="M3.79725 9.67968C4.49628 9.62142 5.1856 9.51463 5.84579 9.35929C6.21473 9.27191 7.31181 9.40783 7.26327 9.54376C6.56424 9.78647 4.72929 9.87385 3.78754 9.6991C3.78754 9.6991 3.77783 9.6991 3.77783 9.68939C3.78754 9.68939 3.78754 9.67968 3.79725 9.67968Z" fill="white"/>
<path opacity="0.17" d="M5.57392 10.2039C6.19528 10.1262 6.78751 9.99026 7.37003 9.82521C7.69042 9.72813 8.67101 9.82521 8.63217 9.97084C8.03023 10.233 6.41858 10.3786 5.57392 10.2427C5.57392 10.2427 5.56421 10.2427 5.56421 10.233C5.56421 10.2136 5.56421 10.2039 5.57392 10.2039Z" fill="white"/>
<path opacity="0.17" d="M7.50606 10.6408C8.11771 10.5243 8.70994 10.369 9.28276 10.1748C9.60315 10.068 10.5837 10.1068 10.5546 10.2427C9.96237 10.534 8.36043 10.7573 7.51577 10.6699C7.51577 10.6699 7.50606 10.6699 7.50606 10.6602C7.49635 10.6505 7.49635 10.6408 7.50606 10.6408Z" fill="white"/>
<path opacity="0.17" d="M9.72944 11.0874C10.2634 10.9029 10.7683 10.6796 11.2537 10.4175C11.5256 10.2718 12.409 10.1748 12.3993 10.301C11.9139 10.6408 10.5061 11.068 9.72944 11.1068C9.72944 11.1068 9.71973 11.1068 9.71973 11.0971C9.71973 11.0971 9.71973 11.0874 9.72944 11.0874Z" fill="white"/>
<path opacity="0.17" d="M11.8554 11.0388C12.3117 10.8641 12.7583 10.6505 13.1661 10.4175C13.3991 10.2815 14.1661 10.165 14.1661 10.2815C13.7486 10.5922 12.535 11 11.8554 11.068C11.8554 11.068 11.8457 11.068 11.8457 11.0582C11.8457 11.0485 11.8554 11.0485 11.8554 11.0388Z" fill="white"/>
<g opacity="0.17">
<path d="M16.6225 9.58252C16.4283 9.76699 16.2147 9.91262 15.9914 10.0582C15.7778 10.2039 15.5448 10.3301 15.3215 10.4563C15.0982 10.5825 14.8555 10.699 14.6128 10.7961C14.37 10.8932 14.1176 10.9806 13.8555 11.0291C14.0691 10.8738 14.2924 10.7379 14.5157 10.6116C14.739 10.4854 14.9623 10.3592 15.1953 10.233C15.4283 10.1165 15.6613 10 15.8943 9.8932C16.1467 9.7864 16.3797 9.67961 16.6225 9.58252Z" fill="white"/>
</g>
<path d="M17.4772 6.12622C17.4286 6.16505 17.3801 6.18447 17.3121 6.18447C17.2539 6.19418 17.1859 6.18447 17.1179 6.16505C16.982 6.12622 16.8461 6.02913 16.7976 5.94175C16.6422 5.70874 16.6325 5.34952 16.6713 4.94175C16.6908 4.73787 16.7199 4.50486 16.7102 4.25243C16.7005 4 16.6713 3.71845 16.5548 3.4369C16.4383 3.15534 16.2539 2.92233 16.0306 2.73787C15.817 2.5534 15.5645 2.42719 15.3218 2.3301C15.0694 2.23301 14.8073 2.18447 14.5451 2.17476C14.2733 2.15534 14.0209 2.18447 13.7781 2.2233C13.283 2.31068 12.8364 2.49515 12.4286 2.68932C12.0111 2.89321 11.6325 3.09709 11.2442 3.32039C10.8655 3.53398 10.4869 3.75728 10.1082 3.98058C9.35095 4.42719 8.61308 4.86408 7.8558 5.28156C7.09852 5.69903 6.33153 6.07767 5.54512 6.40777C4.7393 6.72816 3.92376 6.99029 3.08881 7.15534C2.25386 7.32039 1.39949 7.36893 0.545123 7.30097C0.457744 7.28156 0.156774 7.25243 0.176191 7.37864C0.195609 7.51457 0.418909 7.57282 0.496579 7.58253C1.37037 7.74758 2.27328 7.76699 3.16648 7.6602C3.61308 7.60194 4.04998 7.52427 4.48687 7.42719C4.92376 7.32039 5.35095 7.19418 5.76842 7.04855C7.45774 6.46602 9.01114 5.60194 10.5354 4.75728C10.9141 4.54369 11.3024 4.33981 11.681 4.13592C12.0597 3.93204 12.448 3.72816 12.817 3.5534C13.1956 3.37864 13.5645 3.24272 13.9335 3.18447C14.1179 3.15534 14.3024 3.14563 14.4675 3.15534C14.6422 3.16505 14.8073 3.20389 14.9723 3.26214C15.1276 3.32039 15.2733 3.39806 15.3995 3.49515C15.516 3.59224 15.6034 3.69903 15.6713 3.82525C15.7976 4.06796 15.7878 4.4466 15.7878 4.90292C15.7878 5.13592 15.7976 5.38835 15.8558 5.64078C15.9141 5.89321 16.0306 6.17476 16.2247 6.39806C16.3315 6.52427 16.4675 6.61165 16.6034 6.66991C16.7393 6.72816 16.8849 6.76699 17.0306 6.7767C17.1762 6.78641 17.3315 6.7767 17.4772 6.71845C17.6228 6.6602 17.7684 6.56311 17.8558 6.42719C17.9335 6.31068 17.9043 6.16505 17.7878 6.08738C17.7005 6.02913 17.5937 6.03884 17.5063 6.08738L17.4772 6.12622Z" fill="#E8C155"/>
<path opacity="0.46" d="M16.0208 4.16504C16.0014 3.91262 15.9626 3.66019 15.8849 3.41747C15.7975 3.1165 15.6713 2.8932 15.4286 2.68932C15.38 2.65048 15.3315 2.61165 15.283 2.58252C15.5063 2.6699 15.7004 2.7864 15.8655 2.92233C16.0597 3.08737 16.2247 3.30097 16.3218 3.53398C16.4092 3.73786 16.4577 3.97087 16.4577 4.26213C16.4577 4.43689 16.448 4.60194 16.4286 4.76699C16.4189 4.82524 16.4189 4.87378 16.4189 4.92233C16.3898 5.31068 16.38 5.74757 16.5839 6.05825C16.681 6.23301 16.8849 6.3398 17.0402 6.38835C17.1179 6.40776 17.1859 6.41747 17.2635 6.41747C17.283 6.41747 17.3121 6.41747 17.3315 6.41747C17.4383 6.40776 17.5257 6.37864 17.6131 6.31068L17.6422 6.29126L17.6519 6.30097C17.5936 6.38835 17.4966 6.45631 17.3898 6.50485C17.3024 6.53398 17.215 6.55339 17.1082 6.55339C17.0888 6.55339 17.0597 6.55339 17.0402 6.55339C16.9237 6.54368 16.8072 6.51456 16.7004 6.46601C16.5839 6.40776 16.4771 6.3398 16.3995 6.24271C16.215 6.03883 16.1276 5.77669 16.0791 5.59223C15.982 5.18446 16.0402 4.73786 16.0305 4.32038C16.0305 4.27184 16.0208 4.21359 16.0208 4.16504Z" fill="white"/>
<path opacity="0.46" d="M3.12746 7.38834C3.93329 7.233 4.73911 6.99028 5.6129 6.64076C6.32164 6.3495 7.06921 5.99028 7.95271 5.50484C8.68086 5.09708 9.40902 4.66989 10.1178 4.25242L10.2051 4.20387C10.5449 4.0097 10.943 3.77669 11.3411 3.54368C11.7391 3.32038 12.108 3.11649 12.5061 2.92232C12.9915 2.68931 13.5255 2.4563 14.0789 2.4563C14.642 2.4563 15.1954 2.73785 15.4381 3.26212C15.3216 3.17475 15.176 3.10678 15.0401 3.05824C14.8653 2.99028 14.6712 2.95144 14.477 2.94174C14.4284 2.94174 14.3702 2.93203 14.3216 2.93203C14.1857 2.93203 14.0401 2.94174 13.8847 2.97086C13.5352 3.02911 13.1469 3.15533 12.71 3.35921C12.3799 3.51455 12.0401 3.68931 11.71 3.86407L11.5644 3.94174C11.1663 4.15533 10.7585 4.37863 10.4187 4.56309L10.3022 4.62135C8.8362 5.42717 7.31193 6.27183 5.68086 6.82523C5.25368 6.97086 4.82649 7.09707 4.41872 7.19416C3.98183 7.30096 3.54494 7.36892 3.12746 7.42717C2.92358 7.4563 2.70999 7.47572 2.5061 7.48542C2.7197 7.4563 2.92358 7.42717 3.12746 7.38834Z" fill="white"/>
<path d="M3.09839 7.66991C3.6615 7.58254 4.2246 7.46603 4.778 7.31069C5.3314 7.14564 5.86538 6.96118 6.39936 6.73788C7.45761 6.30098 8.46732 5.77671 9.47703 5.22331C9.98188 4.95147 10.477 4.66991 10.9819 4.39807C11.2343 4.26215 11.4867 4.11652 11.7392 3.9903L12.5062 3.60195C13.011 3.33982 13.5741 3.11652 14.1664 3.08739C14.4673 3.07768 14.7683 3.12622 15.0304 3.24273C15.1663 3.30098 15.2926 3.37865 15.3994 3.47574C15.5159 3.57283 15.5935 3.68933 15.6518 3.82525C15.5062 3.57283 15.2537 3.41749 14.9916 3.33011C14.7295 3.24273 14.4479 3.20389 14.1664 3.24273C13.8848 3.27186 13.6227 3.34953 13.3605 3.44661C13.0984 3.5437 12.846 3.66991 12.5935 3.80584C11.5741 4.3204 10.5741 4.88351 9.56441 5.4272C8.5547 5.97089 7.51586 6.48545 6.43819 6.89322C5.37023 7.28156 4.24402 7.58254 3.09839 7.66991Z" fill="#91632B"/>
<path d="M23.1373 14.2233C23.1082 13.9612 23.0111 13.6699 22.8557 13.4175C22.8557 13.4078 22.846 13.4078 22.846 13.4078C22.6421 13.0388 22.2732 12.7961 21.8751 12.6408C21.5451 12.5048 21.1082 12.4369 20.7489 12.534C20.2926 12.6505 19.8363 13.1359 19.1567 13.0874C19.0985 13.0874 19.0499 13.1359 19.0693 13.1942C19.1373 13.4175 19.2829 13.6214 19.4965 13.7379C19.7878 13.9029 20.1567 13.9612 20.4868 13.8932C20.8266 13.8252 21.1664 13.466 21.5353 13.5825C21.8751 13.6893 22.0111 14.0971 22.079 14.3981C22.1082 14.5243 22.0985 14.6796 22.0693 14.8252C22.0402 14.9612 21.9917 15.0971 21.9043 15.2233C21.7489 15.4854 21.4868 15.7184 21.1761 15.9223C20.8654 16.1262 20.5159 16.301 20.1567 16.466C19.4285 16.7864 18.6421 17.0582 17.846 17.3689C17.448 17.5243 17.0499 17.699 16.6518 17.9029C16.2538 18.1068 15.8557 18.3495 15.4868 18.6796C15.3023 18.8447 15.1276 19.0291 14.9722 19.2524C14.8266 19.4757 14.7004 19.7281 14.6324 19.9903C14.5645 20.2524 14.5353 20.5437 14.5645 20.7864C14.5839 21.0388 14.6421 21.301 14.7392 21.5534C14.9334 22.0485 15.2732 22.4563 15.6324 22.767C15.9917 23.0777 16.38 23.3204 16.7586 23.5437C17.5256 23.9709 18.2926 24.301 18.9819 24.6796C19.3218 24.8738 19.6421 25.0777 19.914 25.301C20.1761 25.534 20.38 25.7864 20.4965 26.068C20.5548 26.2136 20.5839 26.3592 20.6033 26.5146C20.613 26.6699 20.613 26.8447 20.5839 27C20.5353 27.3204 20.3994 27.6311 20.2052 27.9223C19.8072 28.5048 19.1761 29.0097 18.5353 29.5146C18.215 29.767 17.8751 30.0194 17.5548 30.2913C17.2344 30.5631 16.914 30.8641 16.6324 31.2136C16.3606 31.5631 16.1276 31.9612 16.0111 32.4078C15.9528 32.6311 15.914 32.8544 15.914 33.0777C15.9043 33.301 15.9237 33.5146 15.9528 33.7281C16.0208 34.1553 16.1567 34.5825 16.3703 34.9612C16.5839 35.3398 16.846 35.6796 17.1276 35.9903C17.7004 36.6116 18.3315 37.1359 18.8266 37.7573C19.079 38.068 19.2829 38.4078 19.4383 38.767C19.5839 39.1262 19.6713 39.5243 19.681 39.9126C19.681 39.9417 19.7101 39.9709 19.7392 39.9709C19.7781 39.9709 19.8072 39.9417 19.8072 39.9126C19.8266 39.5048 19.7781 39.0874 19.6421 38.6893C19.5159 38.2913 19.312 37.9223 19.0693 37.5825C18.5839 36.8932 17.9722 36.3301 17.4771 35.7087C17.2247 35.3981 17.0111 35.0777 16.846 34.7379C16.6907 34.3981 16.5839 34.0388 16.5548 33.6699C16.5353 33.4854 16.5353 33.2913 16.5451 33.1165C16.5645 32.9417 16.5936 32.767 16.6518 32.6019C16.7586 32.2621 16.9625 31.9612 17.2052 31.6796C17.7004 31.1165 18.3703 30.6602 19.0499 30.1845C19.3897 29.9417 19.7392 29.699 20.0693 29.4272C20.3994 29.1456 20.7295 28.8447 21.0014 28.466C21.2732 28.0971 21.4868 27.6505 21.5839 27.1845C21.6324 26.9514 21.6518 26.7184 21.6421 26.4757C21.6324 26.233 21.5839 25.9806 21.4965 25.7476C21.3315 25.2621 21.0111 24.8641 20.6713 24.5437C20.3218 24.2233 19.9528 23.9709 19.5742 23.7379C18.8266 23.2913 18.0596 22.9417 17.3897 22.534C17.0596 22.3301 16.7489 22.1165 16.4965 21.8835C16.2441 21.6505 16.0596 21.3981 15.9722 21.1359C15.8849 20.8835 15.8654 20.5631 15.9334 20.3301C15.9722 20.2039 16.0208 20.0874 16.0985 19.9806C16.1761 19.8641 16.2829 19.7476 16.3994 19.6408C16.6421 19.4175 16.9528 19.2233 17.2829 19.0291C17.613 18.8447 17.9819 18.6699 18.3509 18.5048C19.0887 18.165 19.8751 17.8544 20.6518 17.466C21.0402 17.2718 21.4285 17.0582 21.7975 16.7961C22.1664 16.534 22.5353 16.2039 22.8072 15.767C22.9431 15.5534 23.0402 15.301 23.0887 15.0485C23.1664 14.7379 23.1761 14.4951 23.1373 14.2233Z" fill="#C9A74A"/>
<path opacity="0.25" d="M23.1373 14.2233C23.1082 13.9612 23.0111 13.6699 22.8557 13.4175C22.8557 13.4078 22.846 13.4078 22.846 13.4078C22.6421 13.0388 22.2732 12.7961 21.8751 12.6408C21.5451 12.5048 21.1082 12.4369 20.7489 12.534C20.2926 12.6505 19.8363 13.1359 19.1567 13.0874C19.0985 13.0874 19.0499 13.1359 19.0693 13.1942C19.1373 13.4175 19.2829 13.6214 19.4965 13.7379C19.7878 13.9029 20.1567 13.9612 20.4868 13.8932C20.8266 13.8252 21.1664 13.466 21.5353 13.5825C21.8751 13.6893 22.0111 14.0971 22.079 14.3981C22.1082 14.5243 22.0985 14.6796 22.0693 14.8252C22.0402 14.9612 21.9917 15.0971 21.9043 15.2233C21.7489 15.4854 21.4868 15.7184 21.1761 15.9223C20.8654 16.1262 20.5159 16.301 20.1567 16.466C19.4285 16.7864 18.6421 17.0582 17.846 17.3689C17.448 17.5243 17.0499 17.699 16.6518 17.9029C16.2538 18.1068 15.8557 18.3495 15.4868 18.6796C15.3023 18.8447 15.1276 19.0291 14.9722 19.2524C14.8266 19.4757 14.7004 19.7281 14.6324 19.9903C14.5645 20.2524 14.5353 20.5437 14.5645 20.7864C14.5839 21.0388 14.6421 21.301 14.7392 21.5534C14.9334 22.0485 15.2732 22.4563 15.6324 22.767C15.9917 23.0777 16.38 23.3204 16.7586 23.5437C17.5256 23.9709 18.2926 24.301 18.9819 24.6796C19.3218 24.8738 19.6421 25.0777 19.914 25.301C20.1761 25.534 20.38 25.7864 20.4965 26.068C20.5548 26.2136 20.5839 26.3592 20.6033 26.5146C20.613 26.6699 20.613 26.8447 20.5839 27C20.5353 27.3204 20.3994 27.6311 20.2052 27.9223C19.8072 28.5048 19.1761 29.0097 18.5353 29.5146C18.215 29.767 17.8751 30.0194 17.5548 30.2913C17.2344 30.5631 16.914 30.8641 16.6324 31.2136C16.3606 31.5631 16.1276 31.9612 16.0111 32.4078C15.9528 32.6311 15.914 32.8544 15.914 33.0777C15.9043 33.301 15.9237 33.5146 15.9528 33.7281C16.0208 34.1553 16.1567 34.5825 16.3703 34.9612C16.5839 35.3398 16.846 35.6796 17.1276 35.9903C17.7004 36.6116 18.3315 37.1359 18.8266 37.7573C19.079 38.068 19.2829 38.4078 19.4383 38.767C19.5839 39.1262 19.6713 39.5243 19.681 39.9126C19.681 39.9417 19.7101 39.9709 19.7392 39.9709C19.7781 39.9709 19.8072 39.9417 19.8072 39.9126C19.8266 39.5048 19.7781 39.0874 19.6421 38.6893C19.5159 38.2913 19.312 37.9223 19.0693 37.5825C18.5839 36.8932 17.9722 36.3301 17.4771 35.7087C17.2247 35.3981 17.0111 35.0777 16.846 34.7379C16.6907 34.3981 16.5839 34.0388 16.5548 33.6699C16.5353 33.4854 16.5353 33.2913 16.5451 33.1165C16.5645 32.9417 16.5936 32.767 16.6518 32.6019C16.7586 32.2621 16.9625 31.9612 17.2052 31.6796C17.7004 31.1165 18.3703 30.6602 19.0499 30.1845C19.3897 29.9417 19.7392 29.699 20.0693 29.4272C20.3994 29.1456 20.7295 28.8447 21.0014 28.466C21.2732 28.0971 21.4868 27.6505 21.5839 27.1845C21.6324 26.9514 21.6518 26.7184 21.6421 26.4757C21.6324 26.233 21.5839 25.9806 21.4965 25.7476C21.3315 25.2621 21.0111 24.8641 20.6713 24.5437C20.3218 24.2233 19.9528 23.9709 19.5742 23.7379C18.8266 23.2913 18.0596 22.9417 17.3897 22.534C17.0596 22.3301 16.7489 22.1165 16.4965 21.8835C16.2441 21.6505 16.0596 21.3981 15.9722 21.1359C15.8849 20.8835 15.8654 20.5631 15.9334 20.3301C15.9722 20.2039 16.0208 20.0874 16.0985 19.9806C16.1761 19.8641 16.2829 19.7476 16.3994 19.6408C16.6421 19.4175 16.9528 19.2233 17.2829 19.0291C17.613 18.8447 17.9819 18.6699 18.3509 18.5048C19.0887 18.165 19.8751 17.8544 20.6518 17.466C21.0402 17.2718 21.4285 17.0582 21.7975 16.7961C22.1664 16.534 22.5353 16.2039 22.8072 15.767C22.9431 15.5534 23.0402 15.301 23.0887 15.0485C23.1664 14.7379 23.1761 14.4951 23.1373 14.2233Z" fill="#C9A74A"/>
<path opacity="0.58" d="M18.8169 23.2524C18.5839 23.3689 18.3703 23.4952 18.1373 23.6117C17.9431 23.7088 17.7295 23.7961 17.5256 23.9029C17.9819 24.1262 18.4188 24.3398 18.8363 24.5631C18.8849 24.5146 18.9334 24.4757 18.9819 24.4369C19.2538 24.2136 19.5451 24.0097 19.8654 23.8544C19.7781 23.7961 19.6907 23.7379 19.5936 23.6893C19.3315 23.534 19.0693 23.3884 18.8169 23.2524Z" fill="#C9A74A"/>
<path opacity="0.58" d="M17.7391 31.0874C17.7488 31.0971 17.7585 31.1068 17.7682 31.1165C17.9818 30.932 18.2051 30.767 18.4478 30.5922C18.409 30.5534 18.3702 30.5242 18.3216 30.4854C18.1857 30.3786 18.0401 30.2718 17.9042 30.1553C17.8653 30.1262 17.8265 30.0874 17.7877 30.0582C17.7003 30.1262 17.6226 30.1942 17.5352 30.2621C17.3799 30.3883 17.2343 30.5242 17.0886 30.6699C17.3313 30.7864 17.5449 30.9223 17.7391 31.0874Z" fill="#C9A74A"/>
<path opacity="0.58" d="M18.3022 17.8641C18.0789 17.7573 17.8459 17.6602 17.6129 17.5631C17.5643 17.5437 17.5158 17.5243 17.4672 17.5049C17.1954 17.6214 16.9333 17.7379 16.6614 17.8738C16.4964 17.9612 16.3313 18.0486 16.1663 18.1554C16.5546 18.2816 16.8944 18.534 17.1954 18.7961C17.2536 18.8447 17.3119 18.9029 17.3701 18.9515C17.6905 18.7767 18.0303 18.6214 18.3701 18.4563C18.5546 18.369 18.7294 18.2913 18.9138 18.2136C18.7294 18.0874 18.5158 17.9612 18.3022 17.8641Z" fill="#C9A74A"/>
<g opacity="0.75">
<path d="M14.6423 19.9612C14.7102 19.6893 14.8364 19.4369 14.9821 19.2233C15.1277 19 15.3122 18.8155 15.4966 18.6505C15.8656 18.3204 16.2636 18.0777 16.6617 17.8738C17.0597 17.6699 17.4578 17.4952 17.8559 17.3398C18.652 17.0291 19.4384 16.7573 20.1665 16.4369C20.5355 16.2816 20.885 16.1068 21.186 15.8932C21.4966 15.6893 21.7588 15.4563 21.9141 15.1942C21.9918 15.068 22.05 14.932 22.0792 14.7961C22.1083 14.6602 22.118 14.5049 22.0889 14.3689C22.0209 14.068 21.8753 13.6602 21.5452 13.5534C21.186 13.4369 20.8656 13.767 20.5355 13.8544C20.8462 13.7476 20.9627 13.3689 21.3996 13.3592C21.4772 13.3592 21.5549 13.3689 21.6326 13.3981C21.9821 13.5049 22.2054 13.7767 22.3219 14.3204C22.3704 14.5146 22.3413 14.7282 22.3122 14.835C22.2733 15.0097 22.2151 15.1651 22.118 15.3107C21.9627 15.5728 21.6908 15.835 21.3219 16.0777C21.05 16.2621 20.7102 16.4369 20.2636 16.6408C19.7879 16.8544 19.2928 17.0388 18.7782 17.233C18.5063 17.3398 18.2248 17.4369 17.9432 17.5534C17.5063 17.7282 17.118 17.8932 16.7685 18.0777C16.3219 18.3107 15.9627 18.5437 15.652 18.8155C15.4578 18.9806 15.3025 19.1554 15.1763 19.3398C15.0306 19.5534 14.9238 19.7864 14.8656 20.0097C14.8073 20.233 14.7782 20.4952 14.7976 20.7379C14.817 20.9806 14.8753 21.2233 14.9529 21.4369C15.1083 21.8447 15.3898 22.2233 15.7782 22.5631C16.1568 22.8932 16.5549 23.1359 16.8656 23.3107C17.2442 23.5243 17.6326 23.7185 18.0112 23.9029C18.3898 24.0874 18.7394 24.2621 19.0792 24.4563C19.4966 24.6893 19.7976 24.8932 20.05 25.1068C20.3704 25.3787 20.5743 25.6602 20.6908 25.9612C20.7588 26.1262 20.7976 26.2913 20.8073 26.466C20.817 26.6408 20.817 26.835 20.7879 27.0097C20.7394 27.3495 20.5937 27.6893 20.3801 28.0194C19.9724 28.6214 19.3607 29.1165 18.652 29.6602L18.5161 29.7573C18.2345 29.9709 17.9529 30.1942 17.6714 30.4272C17.283 30.7573 17.0112 31.0291 16.7879 31.3204C16.4966 31.6796 16.3025 32.0583 16.2054 32.4272C16.1471 32.6311 16.118 32.835 16.1083 33.0486C16.0986 33.2427 16.118 33.4369 16.1471 33.6602C16.2054 34.0583 16.3413 34.466 16.5452 34.8155C16.7199 35.1262 16.953 35.4369 17.2442 35.767C16.9724 35.4175 16.7588 35.0971 16.6131 34.7767C16.4384 34.3981 16.3316 34.0194 16.2928 33.6311C16.2733 33.4272 16.2733 33.2233 16.283 33.0388C16.3025 32.8447 16.3413 32.6505 16.3996 32.466C16.5063 32.1262 16.7102 31.7864 17.0015 31.466C17.4772 30.9223 18.0889 30.4952 18.7296 30.0486L18.885 29.9418C19.2345 29.699 19.5646 29.4563 19.8947 29.1942C20.283 28.8738 20.5646 28.5825 20.7879 28.2719C21.0597 27.9029 21.2539 27.4854 21.3316 27.0777C21.3801 26.8447 21.3898 26.6408 21.3801 26.4175C21.3704 26.1942 21.3219 25.9612 21.2539 25.7476C21.118 25.3592 20.8656 24.9806 20.4869 24.6311C20.2054 24.3689 19.8753 24.1262 19.4287 23.8641C19.05 23.6408 18.6714 23.4369 18.3025 23.2427C17.9335 23.0486 17.584 22.8641 17.2442 22.6602C16.8462 22.4272 16.5452 22.2039 16.3122 21.9806C16.0209 21.7087 15.8267 21.4272 15.7296 21.1359C15.6229 20.835 15.6034 20.466 15.6908 20.1942C15.7296 20.0486 15.7976 19.9126 15.8947 19.7767C15.9821 19.6505 16.0986 19.5243 16.2345 19.3981C16.5161 19.1359 16.8753 18.9223 17.1665 18.7573C17.5161 18.5631 17.885 18.3884 18.2539 18.2233C18.5258 18.0971 18.8073 17.9806 19.0792 17.8544C19.5646 17.6408 20.0597 17.4272 20.5452 17.1845C21.0015 16.9515 21.351 16.7476 21.6617 16.5243C22.0889 16.2233 22.3898 15.9126 22.6034 15.5631C22.7199 15.3689 22.8073 15.1456 22.8559 14.9223C22.9044 14.699 22.9044 14.4757 22.8753 14.2136C22.8462 13.9612 22.7588 13.7185 22.6326 13.5049C22.6326 13.4952 22.6131 13.4854 22.6131 13.4854V13.4757C22.0597 12.4369 20.7199 12.5146 20.652 12.5146C20.6811 12.5049 20.7005 12.4952 20.7296 12.4952C21.0889 12.3981 21.5355 12.466 21.8559 12.602C22.2442 12.767 22.6229 13 22.8267 13.3689C22.8267 13.3787 22.8364 13.3787 22.8364 13.3787C22.9918 13.6311 23.0792 13.9223 23.118 14.1845C23.1471 14.4563 23.1471 14.699 23.0889 14.9612C23.0403 15.2136 22.9432 15.466 22.8073 15.6796C22.5355 16.1165 22.1763 16.4369 21.7976 16.7087C21.419 16.9709 21.0306 17.1845 20.652 17.3787C19.8753 17.767 19.0986 18.0777 18.351 18.4175C17.9821 18.5922 17.6229 18.7573 17.283 18.9418C16.9529 19.1262 16.6326 19.3301 16.3996 19.5534C16.283 19.6602 16.1763 19.7767 16.0986 19.8932C16.0209 20.0097 15.9627 20.1262 15.9335 20.2427C15.8656 20.4757 15.885 20.7961 15.9724 21.0486C16.0597 21.3107 16.2442 21.5631 16.4966 21.7961C16.7491 22.0291 17.0597 22.2427 17.3898 22.4466C18.0597 22.8544 18.817 23.2039 19.5743 23.6505C19.953 23.8738 20.3219 24.1262 20.6714 24.4563C21.0112 24.7767 21.3316 25.1845 21.4966 25.6602C21.584 25.8932 21.6229 26.1456 21.6423 26.3884C21.652 26.6311 21.6326 26.8641 21.584 27.0971C21.4966 27.5728 21.283 28.0097 21.0015 28.3787C20.7296 28.7476 20.3996 29.0583 20.0695 29.3398C19.7296 29.6214 19.3898 29.8641 19.05 30.0971C18.3704 30.5728 17.7005 31.0291 17.2054 31.5922C16.9627 31.8738 16.7588 32.1748 16.652 32.5146C16.5937 32.6796 16.5646 32.8544 16.5452 33.0291C16.5258 33.2039 16.5355 33.3981 16.5549 33.5825C16.584 33.9515 16.6908 34.3107 16.8462 34.6505C17.0112 34.9903 17.2248 35.3107 17.4772 35.6214C17.9724 36.2427 18.584 36.8155 19.0695 37.4952C19.3122 37.835 19.5161 38.2136 19.6423 38.602C19.7685 39 19.817 39.4175 19.8073 39.8253C19.8073 39.8544 19.7782 39.8835 19.7394 39.8835C19.7102 39.8835 19.6811 39.8544 19.6811 39.8253C19.6617 39.4272 19.584 39.0388 19.4384 38.6796C19.2928 38.3204 19.0792 37.9806 18.8267 37.6699C18.3316 37.0486 17.6908 36.5243 17.1277 35.9029C16.8462 35.5922 16.5743 35.2524 16.3704 34.8738C16.1568 34.4952 16.0112 34.0777 15.9529 33.6408C15.9238 33.4272 15.9044 33.2136 15.9141 32.9903C15.9238 32.767 15.953 32.5437 16.0112 32.3204C16.1277 31.8835 16.3607 31.4757 16.6326 31.1262C16.9044 30.7767 17.2248 30.4757 17.5549 30.2039C17.885 29.9321 18.2151 29.6699 18.5355 29.4272C19.186 28.9321 19.8073 28.4272 20.2054 27.835C20.3996 27.5437 20.5355 27.233 20.584 26.9126C20.6131 26.7573 20.6131 26.5825 20.6034 26.4272C20.5937 26.2719 20.5549 26.1262 20.4966 25.9806C20.3898 25.699 20.1763 25.4466 19.9141 25.2136C19.652 24.9806 19.3219 24.7767 18.9821 24.5922C18.2928 24.2039 17.5258 23.8835 16.7588 23.4563C16.3801 23.2427 15.9918 23 15.6326 22.6796C15.2733 22.3689 14.9335 21.9612 14.7394 21.466C14.6423 21.2233 14.584 20.9612 14.5646 20.699C14.5549 20.5146 14.5743 20.2233 14.6423 19.9612Z" fill="#C9A74A"/>
</g>
<path opacity="0.42" d="M22.1277 13.1456C21.9627 13.1067 21.7879 13.1067 21.6229 13.1262C21.4675 13.1456 21.3025 13.1747 21.1568 13.233C21.1568 13.233 21.1568 13.233 21.1568 13.2427C20.9918 13.2815 20.8462 13.3592 20.7102 13.4271C20.6034 13.4854 20.4966 13.5339 20.4287 13.5534C20.3607 13.5631 20.2928 13.5728 20.2248 13.5728C20.0403 13.5728 19.8462 13.5242 19.7005 13.4368C19.6714 13.4271 19.652 13.4077 19.6326 13.3883C19.953 13.3203 20.2248 13.1747 20.4578 13.0485C20.6132 12.9611 20.7588 12.8834 20.8753 12.8543C20.953 12.8349 21.0403 12.8252 21.1471 12.8252C21.351 12.8252 21.584 12.8737 21.7782 12.9514C21.9238 13.0097 22.0598 13.0776 22.1763 13.1553C22.1374 13.1456 22.1277 13.1456 22.1277 13.1456Z" fill="white"/>
<path opacity="0.42" d="M16.5742 22.835C16.7295 22.835 16.7878 22.6505 16.6713 22.5632C16.4868 22.4369 16.3314 22.301 16.1858 22.1748C15.8654 21.8835 15.6518 21.5632 15.5353 21.2428C15.4091 20.903 15.3994 20.4855 15.4868 20.1651C15.5353 20.0001 15.613 19.8447 15.7198 19.6894C15.8169 19.5535 15.9431 19.4078 16.0887 19.2719C16.1664 19.1942 16.2635 19.1263 16.3509 19.0583C16.3897 19.0292 16.4091 18.9903 16.4091 18.9418V18.8447C16.4091 18.7185 16.2635 18.6505 16.1567 18.7185C16.0305 18.8059 15.914 18.8933 15.8072 18.9903C15.6324 19.1457 15.4868 19.301 15.3703 19.4758C15.2441 19.67 15.147 19.8738 15.0887 20.0777C15.0305 20.2816 15.0111 20.5146 15.0305 20.7282C15.0499 20.9515 15.0984 21.1651 15.1761 21.369C15.3217 21.7379 15.5742 22.0874 15.9431 22.4078C16.1179 22.5632 16.2926 22.6894 16.4674 22.8059C16.5159 22.8253 16.545 22.835 16.5742 22.835Z" fill="white"/>
<path opacity="0.42" d="M21.186 26.4466C21.1763 26.2427 21.1374 26.0388 21.0695 25.8447C20.9432 25.4854 20.7102 25.1456 20.3607 24.8155C20.2054 24.6699 20.0306 24.534 19.8364 24.3884C19.8364 24.3884 19.7685 24.3398 19.6229 24.2913C19.4675 24.2427 19.3122 24.2718 19.4578 24.3884C19.5355 24.4466 20.0209 24.7573 20.2345 24.932C20.5743 25.233 20.817 25.5437 20.9432 25.8738C21.0112 26.0583 21.0597 26.2427 21.0792 26.4369C21.0986 26.6311 21.0889 26.835 21.0598 27.0291C21.0015 27.4078 20.8559 27.7767 20.6131 28.1359C20.4578 28.3689 20.2733 28.5825 20.0695 28.7864C20.3025 28.5728 20.4869 28.3689 20.6423 28.1553C20.8947 27.8058 21.0695 27.4272 21.1471 27.0485C21.1763 26.8544 21.186 26.6602 21.186 26.4466Z" fill="white"/>
<path opacity="0.42" d="M22.6809 14.5146C22.6712 14.4078 22.6226 14.2234 22.5255 14.1554C22.5352 14.1942 22.5449 14.2428 22.5546 14.2816C22.6129 14.5146 22.5741 14.767 22.5546 14.8933C22.5158 15.0874 22.4381 15.2719 22.3313 15.4467C22.1566 15.7379 21.8653 16.0195 21.4673 16.2816C21.176 16.4758 20.8362 16.6602 20.3702 16.8641C20.108 16.9806 19.8459 17.0874 19.5838 17.1845C19.5352 17.2039 19.5061 17.2428 19.5061 17.2913C19.5061 17.369 19.5935 17.4272 19.6712 17.3884C19.9333 17.2719 20.1954 17.1457 20.4576 17.0195C20.9042 16.7962 21.244 16.5923 21.5449 16.3787C21.943 16.0971 22.2245 15.8059 22.4284 15.4855C22.5352 15.3107 22.6129 15.1166 22.6517 14.9127C22.6712 14.7768 22.6906 14.6505 22.6809 14.5146Z" fill="white"/>
<path d="M18.0598 40C18.1084 40 18.1375 39.9612 18.1375 39.9223L18.8462 2.37865C18.8462 2.36894 18.8462 2.35923 18.8462 2.34952C18.8365 1.89321 18.4482 1.53399 17.9919 1.57282C17.5744 1.61166 17.2637 1.98059 17.2734 2.40778L17.9822 39.9223C17.9822 39.9612 18.021 40 18.0598 40Z" fill="#91632B"/>
<path d="M18.06 2.70874C17.759 2.70874 17.526 2.95146 17.5357 3.25243L18.06 25.3884L18.5842 3.25243C18.5939 2.95146 18.3609 2.70874 18.06 2.70874Z" fill="#C9A74A"/>
<path opacity="0.46" d="M18.05 4.00977L18.2442 11.0098L18.4287 4.34957C18.4287 4.16511 18.2539 4.00977 18.05 4.00977Z" fill="white"/>
<path d="M17.9436 4.01941C17.8465 4.01941 17.7688 4.09708 17.7688 4.19417L17.9241 30C17.9241 30.0097 17.9338 30.0194 17.9436 30.0194C17.9533 30.0194 17.963 30.0097 17.963 30L18.1183 4.19417C18.1183 4.08737 18.0406 4.01941 17.9436 4.01941Z" fill="#94652C"/>
<path d="M18.0596 2.65054C17.3315 2.65054 16.7393 2.05831 16.7393 1.33015C16.7393 0.601999 17.3315 0.00976562 18.0596 0.00976562C18.7878 0.00976562 19.38 0.601999 19.38 1.33015C19.38 2.05831 18.7878 2.65054 18.0596 2.65054Z" fill="#91632B"/>
<path d="M18.0596 2.40777C18.7245 2.40777 19.2635 1.86877 19.2635 1.20388C19.2635 0.538997 18.7245 0 18.0596 0C17.3947 0 16.8557 0.538997 16.8557 1.20388C16.8557 1.86877 17.3947 2.40777 18.0596 2.40777Z" fill="#E8C155"/>
<path d="M18.0596 0C17.3994 0 16.8557 0.533981 16.8557 1.20388C16.8557 1.86408 17.3897 2.40777 18.0596 2.40777C18.7198 2.40777 19.2635 1.87379 19.2635 1.20388C19.2635 0.533981 18.7295 0 18.0596 0ZM18.0693 2.04854C17.5256 2.04854 17.079 1.60194 17.079 1.05825C17.079 0.514563 17.5256 0.0679612 18.0693 0.0679612C18.613 0.0679612 19.0596 0.514563 19.0596 1.05825C19.0596 1.60194 18.613 2.04854 18.0693 2.04854Z" fill="#C9A74A"/>
<path opacity="0.18" d="M18.8071 0.999998C18.8071 1.38835 18.4868 1.70874 18.079 1.70874C17.6809 1.70874 17.3508 1.39806 17.3508 0.999998C17.3508 0.611648 17.6712 0.29126 18.079 0.29126C18.477 0.300969 18.8071 0.611648 18.8071 0.999998Z" fill="white"/>
<path opacity="0.48" d="M18.6713 0.466032C18.7587 0.611663 18.7296 0.78642 18.6131 0.854382C18.4966 0.922343 18.3315 0.854382 18.2442 0.70875C18.1568 0.563119 18.1859 0.388362 18.3024 0.320401C18.4189 0.25244 18.584 0.310692 18.6713 0.466032Z" fill="white"/>
<path opacity="0.48" d="M18.9624 1.03888C19.0304 1.14567 18.9916 1.2913 18.8848 1.34956C18.778 1.40781 18.6421 1.36897 18.5741 1.26218C18.5061 1.15538 18.545 1.00975 18.6518 0.951497C18.7586 0.893244 18.9042 0.932079 18.9624 1.03888Z" fill="white"/>
<path d="M20.2928 33.0581C20.2831 32.8348 20.2539 32.6115 20.1957 32.3882C20.0792 31.9514 19.8462 31.5436 19.5743 31.1941C19.3025 30.8446 18.9821 30.5436 18.652 30.2717C18.5938 30.2232 18.5452 30.1844 18.487 30.1358C18.3025 29.9805 18.118 29.8348 17.9336 29.6892C17.8462 29.6213 17.7588 29.5533 17.6714 29.4853C17.0209 28.9902 16.3996 28.4853 16.0015 27.8931C15.8073 27.6018 15.6714 27.2912 15.6229 26.9708C15.5938 26.8154 15.5938 26.6407 15.6035 26.4853C15.6132 26.33 15.652 26.1844 15.7103 26.0387C15.8171 25.7572 16.0306 25.5047 16.2928 25.2717C16.5549 25.0387 16.885 24.8348 17.2248 24.6504C17.3802 24.563 17.5355 24.4853 17.7005 24.398L17.6811 23.1067C17.3219 23.2912 16.9821 23.4756 16.6229 23.6892C16.2442 23.9125 15.8753 24.1649 15.5258 24.495C15.186 24.8154 14.8656 25.2232 14.7005 25.6989C14.6132 25.9319 14.5743 26.1844 14.5549 26.4271C14.5452 26.6698 14.5646 26.9028 14.6132 27.1358C14.7005 27.6115 14.9141 28.0484 15.1957 28.4174C15.4675 28.7863 15.7976 29.097 16.1277 29.3785C16.4675 29.6601 16.8073 29.9028 17.1472 30.1358C17.419 30.33 17.7005 30.5242 17.9627 30.7183C18.1471 30.8543 18.3122 30.9902 18.4772 31.1261C18.6617 31.2814 18.8365 31.4465 18.9918 31.6213C19.2345 31.9028 19.4384 32.2038 19.5452 32.5436C19.6035 32.7086 19.6326 32.8834 19.652 33.0581C19.6714 33.2329 19.6617 33.4271 19.6423 33.6115C19.6132 33.9805 19.5064 34.3397 19.351 34.6795C19.186 35.0193 18.9724 35.3397 18.72 35.6504C18.6132 35.7863 18.4967 35.9222 18.3802 36.0484C18.2831 36.1649 18.1763 36.2814 18.0695 36.3882C17.7394 36.7475 17.4093 37.1164 17.1277 37.5242C16.885 37.864 16.6811 38.2426 16.5549 38.631C16.4287 39.029 16.3802 39.4465 16.3899 39.8543C16.3899 39.8834 16.419 39.9125 16.4578 39.9125C16.487 39.9125 16.5161 39.8834 16.5161 39.8543C16.5355 39.4562 16.6132 39.0679 16.7588 38.7086C16.9044 38.3494 17.118 38.0096 17.3705 37.6989C17.584 37.4271 17.8268 37.1844 18.0695 36.9416C18.1666 36.8446 18.2539 36.7572 18.351 36.6601C18.5938 36.4271 18.8365 36.1941 19.0695 35.9319C19.351 35.6213 19.6229 35.2814 19.8268 34.9028C20.0404 34.5242 20.186 34.1067 20.2442 33.6698C20.2831 33.4853 20.3025 33.2814 20.2928 33.0581Z" fill="#C9A74A"/>
<path opacity="0.42" d="M15.254 25.8834C15.3802 25.5533 15.6229 25.2329 15.9627 24.9417C16.2249 24.7184 16.5452 24.5048 16.9724 24.2621C17.0016 24.2426 17.0404 24.2232 17.0695 24.2038C17.1084 24.1844 17.1278 24.1456 17.1278 24.1067C17.1278 24.0193 17.0307 23.9708 16.9627 24.0096C16.9239 24.029 16.8948 24.0485 16.8559 24.0776C16.4287 24.3397 16.1084 24.563 15.8365 24.8155C15.487 25.1358 15.254 25.4854 15.1278 25.8446C15.0598 26.0388 15.021 26.2426 15.0113 26.4465C15.0016 26.6504 15.021 26.8543 15.0598 27.0582C15.1278 27.4368 15.3025 27.8155 15.5647 28.165C15.72 28.3786 15.9045 28.5824 16.1375 28.796C15.9336 28.5922 15.7491 28.3689 15.5938 28.1455C15.3511 27.7863 15.2054 27.4174 15.1472 27.0388C15.1181 26.8446 15.1084 26.6407 15.1278 26.4465C15.1375 26.2621 15.186 26.0679 15.254 25.8834Z" fill="white"/>
<path opacity="0.75" d="M20.2928 33.0582C20.2831 32.8349 20.2539 32.6116 20.1957 32.3883C20.0792 31.9514 19.8462 31.5437 19.5743 31.1941C19.3025 30.8446 18.9821 30.5437 18.652 30.2718C18.5938 30.2233 18.5452 30.1844 18.487 30.1359C18.3025 29.9805 18.118 29.8349 17.9336 29.6893C17.8462 29.6213 17.7588 29.5534 17.6714 29.4854C17.0209 28.9903 16.3996 28.4854 16.0015 27.8932C15.8073 27.6019 15.6714 27.2912 15.6229 26.9708C15.5938 26.8155 15.5938 26.6407 15.6035 26.4854C15.6132 26.3301 15.652 26.1844 15.7103 26.0388C15.8171 25.7573 16.0306 25.5048 16.2928 25.2718C16.5549 25.0388 16.885 24.8349 17.2248 24.6505C17.3802 24.5631 17.5355 24.4854 17.7005 24.398V24.1456C17.4967 24.2427 17.3025 24.3495 17.1083 24.4563C16.6908 24.6893 16.3899 24.8932 16.1374 25.1068C15.8171 25.3786 15.6132 25.6602 15.4967 25.9611C15.4287 26.1262 15.3899 26.2912 15.3802 26.466C15.3705 26.6407 15.3705 26.8349 15.3996 27.0097C15.4481 27.3495 15.5938 27.6893 15.8073 28.0194C16.2151 28.6213 16.8268 29.1165 17.5355 29.6602L17.6714 29.7572C17.7685 29.8252 17.8656 29.9029 17.953 29.9805C18.1374 30.1262 18.3219 30.2718 18.4967 30.4174L18.5064 30.4272C18.8947 30.7572 19.1666 31.0291 19.3899 31.3204C19.6811 31.6796 19.8753 32.0582 19.9724 32.4272C20.0306 32.631 20.0598 32.8349 20.0695 33.0485C20.0792 33.2427 20.0598 33.4369 20.0306 33.6602C19.9724 34.0582 19.8365 34.466 19.6326 34.8155C19.4578 35.1262 19.2248 35.4369 18.9336 35.767C19.2054 35.4174 19.419 35.0971 19.5646 34.7767C19.7394 34.398 19.8462 34.0194 19.885 33.631C19.9044 33.4272 19.9044 33.2233 19.8947 33.0388C19.8753 32.8446 19.8365 32.6505 19.7782 32.466C19.6714 32.1262 19.4675 31.7961 19.1763 31.466C18.9724 31.233 18.7394 31.0194 18.487 30.8155C18.3219 30.6796 18.1374 30.5437 17.9627 30.4077C17.7976 30.2815 17.6229 30.165 17.4481 30.0388L17.2928 29.932C16.9433 29.6893 16.6132 29.4466 16.2831 29.1844C15.8947 28.864 15.6132 28.5728 15.3899 28.2621C15.118 27.8932 14.9238 27.4757 14.8462 27.0679C14.7976 26.8349 14.7879 26.631 14.7976 26.4077C14.8073 26.1844 14.8559 25.9514 14.9238 25.7378C15.0598 25.3495 15.3122 24.9708 15.6908 24.6213C15.9724 24.3592 16.3025 24.1165 16.7491 23.8543C17.0695 23.6602 17.3705 23.5048 17.6908 23.3398V23.0776C17.3316 23.2621 16.9918 23.4466 16.6229 23.6699C16.2442 23.8932 15.8753 24.1456 15.5258 24.4757C15.186 24.7961 14.8656 25.2039 14.7005 25.6796C14.6132 25.9126 14.5743 26.165 14.5549 26.4077C14.5452 26.6505 14.5646 26.8835 14.6132 27.1165C14.7005 27.5922 14.9141 28.0291 15.1957 28.398C15.4675 28.767 15.7976 29.0776 16.1277 29.3592C16.4675 29.6407 16.8073 29.8835 17.1472 30.1165C17.419 30.3106 17.7005 30.5048 17.9627 30.699C18.1471 30.8349 18.3122 30.9708 18.4772 31.1068C18.6617 31.2621 18.8365 31.4272 18.9918 31.6019C19.2345 31.8835 19.4384 32.1844 19.5452 32.5242C19.6035 32.6893 19.6326 32.864 19.652 33.0388C19.6714 33.2136 19.6617 33.4077 19.6423 33.5922C19.6132 33.9611 19.5064 34.3204 19.351 34.6602C19.186 35 18.9724 35.3204 18.72 35.631C18.6132 35.767 18.4967 35.9029 18.3802 36.0291C18.2831 36.1456 18.1763 36.2621 18.0695 36.3689C17.7394 36.7281 17.4093 37.0971 17.1277 37.5048C16.885 37.8446 16.6811 38.2233 16.5549 38.6116C16.4287 39.0097 16.3802 39.4272 16.3899 39.8349C16.3899 39.864 16.419 39.8932 16.4578 39.8932C16.487 39.8932 16.5161 39.864 16.5161 39.8349C16.5355 39.4369 16.6132 39.0485 16.7588 38.6893C16.9044 38.3301 17.118 37.9903 17.3705 37.6796C17.584 37.4077 17.8268 37.165 18.0695 36.9223C18.1666 36.8252 18.2539 36.7378 18.351 36.6407C18.5938 36.4077 18.8365 36.1747 19.0695 35.9126C19.351 35.6019 19.6229 35.2621 19.8268 34.8835C20.0404 34.5048 20.186 34.0873 20.2442 33.6505C20.2831 33.4854 20.3025 33.2815 20.2928 33.0582Z" fill="#C9A74A"/>
<path d="M21.5547 19.9611C21.4868 19.6893 21.3606 19.4368 21.2149 19.2232C21.0693 18.9999 20.8848 18.8155 20.7004 18.6504C20.3314 18.3203 19.9334 18.0776 19.5353 17.8737C19.2732 17.7378 19.0013 17.6213 18.7392 17.5048C18.6033 17.4465 18.4771 17.398 18.3412 17.3398C18.1179 17.2524 17.9043 17.1747 17.681 17.0873C17.1179 16.8737 16.5547 16.6698 16.0305 16.4368C15.6615 16.2815 15.312 16.1067 15.0111 15.8931C14.7004 15.6893 14.4382 15.4563 14.2829 15.1941C14.2052 15.0679 14.147 14.932 14.1179 14.7961C14.0887 14.6601 14.079 14.5048 14.1081 14.3689C14.1761 14.0679 14.3217 13.6601 14.6518 13.5533C15.0208 13.4368 15.3606 13.7961 15.7004 13.864C16.0305 13.932 16.3994 13.8737 16.6907 13.7087C16.9043 13.5825 17.0499 13.3883 17.1179 13.165C17.1373 13.1067 17.0887 13.0582 17.0305 13.0582C16.3509 13.1067 15.8946 12.631 15.4382 12.5048C15.079 12.4077 14.6324 12.4757 14.312 12.6116C13.9237 12.7766 13.545 13.0097 13.3412 13.3786C13.3412 13.3883 13.3314 13.3883 13.3314 13.3883C13.1761 13.6407 13.0887 13.932 13.0499 14.1941C13.0208 14.466 13.0208 14.7087 13.079 14.9708C13.1276 15.2232 13.2247 15.4757 13.3606 15.6893C13.6324 16.1262 13.9916 16.4465 14.3703 16.7184C14.7489 16.9805 15.1373 17.1941 15.5159 17.3883C16.2538 17.7572 16.9916 18.0582 17.7004 18.3786C17.7392 18.398 17.778 18.4174 17.8169 18.4271C18.1179 18.5728 18.4188 18.7087 18.7101 18.8543C18.7683 18.8834 18.8266 18.9126 18.8848 18.9514C19.2149 19.1359 19.5353 19.3398 19.7683 19.5631C19.8848 19.6698 19.9916 19.7864 20.0693 19.9029C20.147 20.0194 20.2052 20.1359 20.2344 20.2524C20.3023 20.4854 20.2829 20.8058 20.1955 21.0582C20.1081 21.3203 19.9237 21.5728 19.6713 21.8058C19.4188 22.0388 19.1081 22.2524 18.778 22.4563C18.7295 22.4854 18.681 22.5145 18.6324 22.5436L18.4674 22.6213L18.448 23.9999L18.613 23.9126C18.8848 23.7766 19.1567 23.6407 19.4382 23.4854C19.8169 23.2718 20.2052 23.0291 20.5645 22.7087C20.9237 22.398 21.2635 21.9902 21.4577 21.4951C21.5547 21.2524 21.613 20.9902 21.6324 20.7281C21.6421 20.5145 21.6227 20.2232 21.5547 19.9611Z" fill="#C9A74A"/>
<path opacity="0.75" d="M20.4769 20.2233C20.4381 20.0777 20.3701 19.9417 20.273 19.8058C20.1856 19.6796 20.0691 19.5534 19.9332 19.4272C19.6516 19.165 19.2924 18.9514 19.0012 18.7864C18.9041 18.7281 18.807 18.6796 18.7099 18.6311C18.4478 18.4951 18.1856 18.3689 17.9235 18.2524C17.8458 18.2233 17.7779 18.1845 17.7002 18.1553C17.4963 18.068 17.3021 17.9806 17.0983 17.8932C16.6128 17.6796 16.1177 17.466 15.6322 17.2233C15.1759 16.9903 14.8264 16.7864 14.5157 16.5631C14.0885 16.2621 13.7876 15.9514 13.574 15.6019C13.4575 15.4078 13.3701 15.1845 13.3216 14.9612C13.273 14.7379 13.273 14.5146 13.3021 14.2524C13.3313 14 13.4186 13.7573 13.5449 13.5437C13.5449 13.534 13.5643 13.5243 13.5643 13.5243V13.5146C14.1177 12.4757 15.4575 12.5534 15.5254 12.5534C15.4963 12.5437 15.4769 12.534 15.4478 12.534C15.0885 12.4369 14.6419 12.5048 14.3216 12.6408C13.9332 12.8058 13.5546 13.0388 13.3507 13.4078C13.3507 13.4175 13.341 13.4175 13.341 13.4175C13.1856 13.6699 13.0982 13.9612 13.0594 14.2233C13.0303 14.4951 13.0303 14.7379 13.0885 15C13.1371 15.2524 13.2342 15.5048 13.3701 15.7184C13.6419 16.1553 14.0012 16.4757 14.3798 16.7476C14.7584 17.0097 15.1468 17.2233 15.5254 17.4175C16.2633 17.7864 17.0012 18.0874 17.7099 18.4078C17.7487 18.4272 17.7876 18.4466 17.8264 18.4563C18.1274 18.6019 18.4283 18.7379 18.7196 18.8835C18.7779 18.9126 18.8361 18.9417 18.8944 18.9806C19.2245 19.165 19.5449 19.3689 19.7779 19.5922C19.8944 19.699 20.0012 19.8155 20.0788 19.932C20.1565 20.0485 20.2148 20.165 20.2439 20.2815C20.3118 20.5146 20.2924 20.8349 20.205 21.0874C20.1177 21.3495 19.9332 21.6019 19.6808 21.8349C19.4283 22.068 19.1177 22.2815 18.7876 22.4854C18.739 22.5146 18.5546 22.6116 18.4769 22.6505L18.4672 22.932C18.5643 22.8835 18.8167 22.7281 18.9138 22.6796C19.3118 22.4466 19.6128 22.2233 19.8458 22C20.1371 21.7281 20.3313 21.4466 20.4283 21.1553C20.5351 20.8641 20.5546 20.4951 20.4769 20.2233Z" fill="#C9A74A"/>
<path opacity="0.75" d="M21.5549 19.9611C21.487 19.6892 21.3608 19.4368 21.2151 19.2232C21.0695 18.9999 20.885 18.8154 20.7006 18.6504C20.3316 18.3203 19.9336 18.0776 19.5355 17.8737C19.2734 17.7378 19.0015 17.6213 18.7394 17.5048C18.6035 17.4465 18.4773 17.398 18.3413 17.3397C18.118 17.2523 17.9045 17.1747 17.6812 17.0873C17.118 16.8737 16.5549 16.6698 16.0307 16.4368C15.6617 16.2815 15.3122 16.1067 15.0113 15.8931C14.7006 15.6892 14.4384 15.4562 14.2831 15.1941C14.2054 15.0679 14.1472 14.9319 14.118 14.796C14.0889 14.6601 14.0792 14.5048 14.1083 14.3688C14.1763 14.0679 14.3219 13.6601 14.652 13.5533C15.0113 13.4368 15.3316 13.7669 15.6617 13.8543C15.3511 13.7475 15.2346 13.3688 14.7977 13.3591C14.72 13.3591 14.6423 13.3688 14.5646 13.398C14.2151 13.5048 13.9918 13.7766 13.8753 14.3203C13.8268 14.5145 13.8559 14.7281 13.885 14.8349C13.9239 15.0096 13.9821 15.165 14.0792 15.3106C14.2346 15.5727 14.5064 15.8349 14.8753 16.0776C15.1472 16.262 15.487 16.4368 15.9336 16.6407C16.4093 16.8543 16.9045 17.0387 17.419 17.2329C17.5064 17.2718 17.6035 17.3009 17.6909 17.3397C17.8753 17.4077 18.0598 17.4853 18.254 17.5533C18.4287 17.6213 18.5841 17.6892 18.7394 17.7572C18.9821 17.864 19.2151 17.9708 19.4287 18.0776C19.8753 18.3106 20.2346 18.5436 20.5452 18.8154C20.7394 18.9805 20.8947 19.1552 21.021 19.3397C21.1666 19.5533 21.2734 19.7863 21.3316 20.0096C21.3899 20.2329 21.419 20.4951 21.3996 20.7378C21.3802 20.9805 21.3219 21.2232 21.2443 21.4368C21.0889 21.8446 20.8074 22.2232 20.419 22.563C20.0404 22.8931 19.6423 23.1358 19.3316 23.3106C19.0986 23.4368 18.7006 23.6407 18.4676 23.7572V24.0193C18.7394 23.8834 19.1763 23.6601 19.4481 23.5048C19.8268 23.2912 20.2151 23.0485 20.5744 22.7281C20.9336 22.4174 21.2734 22.0096 21.4676 21.5145C21.5646 21.2718 21.6229 21.0096 21.6423 20.7475C21.6423 20.5145 21.6229 20.2232 21.5549 19.9611Z" fill="#C9A74A"/>
<path opacity="0.42" d="M21.0984 20.0777C21.0401 19.8738 20.9431 19.6602 20.8168 19.4757C20.7003 19.301 20.5547 19.1456 20.38 18.9903C20.079 18.7281 19.7392 18.5048 19.312 18.2815C19.1275 18.1845 18.9333 18.0971 18.7295 18.0097C18.545 17.932 18.3605 17.8544 18.1566 17.7767C18.0013 17.7184 17.846 17.6602 17.6906 17.6019C17.5741 17.5631 17.4673 17.5146 17.3508 17.4757L17.3217 17.466C16.8071 17.2718 16.312 17.0874 15.8266 16.8738C15.3702 16.6699 15.0207 16.4854 14.7295 16.2913C14.3314 16.0291 14.0401 15.7476 13.8654 15.4563C13.7586 15.2913 13.6906 15.1068 13.6421 14.9029C13.613 14.7767 13.5838 14.534 13.6421 14.2913C13.6518 14.2427 13.6615 14.2039 13.6712 14.165C13.5741 14.233 13.5256 14.4175 13.5159 14.5243C13.4965 14.6602 13.5159 14.7864 13.545 14.9223C13.5838 15.1262 13.6615 15.3204 13.7683 15.4951C13.9722 15.8155 14.244 16.0971 14.6518 16.3883C14.9625 16.6019 15.2926 16.7961 15.7392 17.0291C16.2246 17.2718 16.71 17.4854 17.1955 17.699C17.3605 17.767 17.5256 17.8447 17.6906 17.9126C17.7974 17.9612 17.9139 18.0097 18.0207 18.0582C18.2537 18.165 18.4867 18.2718 18.71 18.3883C18.846 18.4563 18.9819 18.5243 19.1178 18.6019C19.4188 18.767 19.7974 19 20.0984 19.2718C20.244 19.4078 20.3702 19.5437 20.4673 19.6893C20.5741 19.8447 20.6518 20 20.7003 20.165C20.7974 20.4854 20.778 20.8932 20.6518 21.2427C20.5353 21.5631 20.3217 21.8835 20.0013 22.1747C19.7489 22.4078 19.4382 22.6408 19.0304 22.8835C19.011 22.8932 18.9916 22.9029 18.9722 22.9223C18.9236 22.9514 18.9042 23 18.9042 23.0485C18.9042 23.1553 19.0207 23.233 19.1178 23.1747C19.1372 23.165 19.1567 23.1553 19.1858 23.1359C19.4867 22.9709 19.8751 22.7281 20.2343 22.4175C20.6033 22.0971 20.8557 21.7476 21.0013 21.3786C21.079 21.1747 21.1275 20.9612 21.1469 20.7379C21.1664 20.5146 21.1469 20.2718 21.0984 20.0777Z" fill="white"/>
<path opacity="0.42" d="M14.0693 13.1456C14.2343 13.1067 14.4091 13.1067 14.5741 13.1262C14.7295 13.1456 14.8945 13.1747 15.0402 13.233C15.0402 13.233 15.0402 13.233 15.0402 13.2427C15.2052 13.2815 15.3508 13.3592 15.4868 13.4271C15.5936 13.4854 15.7004 13.5339 15.7683 13.5534C15.8363 13.5631 15.9042 13.5728 15.9722 13.5728C16.1567 13.5728 16.3508 13.5242 16.4965 13.4368C16.5256 13.4271 16.545 13.4077 16.5644 13.3883C16.2441 13.3203 15.9722 13.1747 15.7392 13.0485C15.5839 12.9611 15.4382 12.8834 15.3217 12.8543C15.2441 12.8349 15.1567 12.8252 15.0499 12.8252C14.846 12.8252 14.613 12.8737 14.4188 12.9514C14.2732 13.0097 14.1373 13.0776 14.0208 13.1553C14.0596 13.1456 14.0693 13.1456 14.0693 13.1456Z" fill="white"/>
</svg>
