<svg width="26" height="26" viewBox="0 0 26 26" fill="none" xmlns="http://www.w3.org/2000/svg">
<path d="M5.70825 15.6041C5.70825 15.1197 5.70825 14.8775 5.76149 14.6789C5.90597 14.1396 6.32714 13.7185 6.86635 13.574C7.06504 13.5208 7.30722 13.5208 7.79159 13.5208C8.27595 13.5208 8.51813 13.5208 8.71682 13.574C9.25603 13.7185 9.6772 14.1396 9.82168 14.6789C9.87492 14.8775 9.87492 15.1197 9.87492 15.6041C9.87492 16.0885 9.87492 16.3306 9.82168 16.5293C9.6772 17.0686 9.25603 17.4897 8.71682 17.6342C8.51813 17.6874 8.27595 17.6874 7.79159 17.6874C7.30722 17.6874 7.06504 17.6874 6.86635 17.6342C6.32714 17.4897 5.90597 17.0686 5.76149 16.5293C5.70825 16.3306 5.70825 16.0885 5.70825 15.6041Z" fill="white"/>
<path d="M10.9167 15.6041C10.9167 15.1197 10.9167 14.8775 10.97 14.6789C11.1145 14.1396 11.5356 13.7185 12.0749 13.574C12.2735 13.5208 12.5157 13.5208 13.0001 13.5208C13.4845 13.5208 13.7266 13.5208 13.9253 13.574C14.4646 13.7185 14.8857 14.1396 15.0302 14.6789C15.0834 14.8775 15.0834 15.1197 15.0834 15.6041C15.0834 16.0885 15.0834 16.3306 15.0302 16.5293C14.8857 17.0686 14.4646 17.4897 13.9253 17.6342C13.7266 17.6874 13.4845 17.6874 13.0001 17.6874C12.5157 17.6874 12.2735 17.6874 12.0749 17.6342C11.5356 17.4897 11.1145 17.0686 10.97 16.5293C10.9167 16.3306 10.9167 16.0885 10.9167 15.6041Z" fill="white"/>
<path d="M16.125 10.3958C16.125 9.91147 16.125 9.66929 16.1782 9.47059C16.3227 8.93139 16.7439 8.51022 17.2831 8.36574C17.4818 8.3125 17.724 8.3125 18.2083 8.3125C18.6927 8.3125 18.9349 8.3125 19.1335 8.36574C19.6728 8.51022 20.094 8.93139 20.2384 9.47059C20.2917 9.66929 20.2917 9.91147 20.2917 10.3958C20.2917 10.8802 20.2917 11.1224 20.2384 11.321C20.094 11.8603 19.6728 12.2815 19.1335 12.4259C18.9349 12.4792 18.6927 12.4792 18.2083 12.4792C17.724 12.4792 17.4818 12.4792 17.2831 12.4259C16.7439 12.2815 16.3227 11.8603 16.1782 11.321C16.125 11.1224 16.125 10.8802 16.125 10.3958Z" fill="white"/>
<path d="M10.9167 20.8126C10.9167 20.3282 10.9167 20.086 10.97 19.8874C11.1145 19.3481 11.5356 18.927 12.0749 18.7825C12.2735 18.7292 12.5157 18.7292 13.0001 18.7292C13.4845 18.7292 13.7266 18.7292 13.9253 18.7825C14.4646 18.927 14.8857 19.3481 15.0302 19.8874C15.0834 20.086 15.0834 20.3282 15.0834 20.8126C15.0834 21.297 15.0834 21.5391 15.0302 21.7378C14.8857 22.2771 14.4646 22.6982 13.9253 22.8427C13.7266 22.8959 13.4845 22.8959 13.0001 22.8959C12.5157 22.8959 12.2735 22.8959 12.0749 22.8427C11.5356 22.6982 11.1145 22.2771 10.97 21.7378C10.9167 21.5391 10.9167 21.297 10.9167 20.8126Z" fill="white"/>
<path d="M5.70825 10.3958C5.70825 9.91147 5.70825 9.66929 5.76149 9.47059C5.90597 8.93139 6.32714 8.51022 6.86635 8.36574C7.06504 8.3125 7.30722 8.3125 7.79159 8.3125C8.27595 8.3125 8.51813 8.3125 8.71682 8.36574C9.25603 8.51022 9.6772 8.93139 9.82168 9.47059C9.87492 9.66929 9.87492 9.91147 9.87492 10.3958C9.87492 10.8802 9.87492 11.1224 9.82168 11.321C9.6772 11.8603 9.25603 12.2815 8.71682 12.4259C8.51813 12.4792 8.27595 12.4792 7.79159 12.4792C7.30722 12.4792 7.06504 12.4792 6.86635 12.4259C6.32714 12.2815 5.90597 11.8603 5.76149 11.321C5.70825 11.1224 5.70825 10.8802 5.70825 10.3958Z" fill="white"/>
<path d="M5.70825 5.18758C5.70825 4.70322 5.70825 4.46104 5.76149 4.26234C5.90597 3.72313 6.32714 3.30197 6.86635 3.15749C7.06504 3.10425 7.30722 3.10425 7.79159 3.10425C8.27595 3.10425 8.51813 3.10425 8.71682 3.15749C9.25603 3.30197 9.6772 3.72313 9.82168 4.26234C9.87492 4.46104 9.87492 4.70322 9.87492 5.18758C9.87492 5.67195 9.87492 5.91412 9.82168 6.11282C9.6772 6.65203 9.25603 7.0732 8.71682 7.21768C8.51813 7.27091 8.27595 7.27091 7.79159 7.27091C7.30722 7.27091 7.06504 7.27091 6.86635 7.21768C6.32714 7.0732 5.90597 6.65203 5.76149 6.11282C5.70825 5.91412 5.70825 5.67195 5.70825 5.18758Z" fill="white"/>
<path d="M10.9167 10.3958C10.9167 9.91147 10.9167 9.66929 10.97 9.47059C11.1145 8.93139 11.5356 8.51022 12.0749 8.36574C12.2735 8.3125 12.5157 8.3125 13.0001 8.3125C13.4845 8.3125 13.7266 8.3125 13.9253 8.36574C14.4646 8.51022 14.8857 8.93139 15.0302 9.47059C15.0834 9.66929 15.0834 9.91147 15.0834 10.3958C15.0834 10.8802 15.0834 11.1224 15.0302 11.321C14.8857 11.8603 14.4646 12.2815 13.9253 12.4259C13.7266 12.4792 13.4845 12.4792 13.0001 12.4792C12.5157 12.4792 12.2735 12.4792 12.0749 12.4259C11.5356 12.2815 11.1145 11.8603 10.97 11.321C10.9167 11.1224 10.9167 10.8802 10.9167 10.3958Z" fill="white"/>
<path d="M10.9167 5.18758C10.9167 4.70322 10.9167 4.46104 10.97 4.26234C11.1145 3.72313 11.5356 3.30197 12.0749 3.15749C12.2735 3.10425 12.5157 3.10425 13.0001 3.10425C13.4845 3.10425 13.7266 3.10425 13.9253 3.15749C14.4646 3.30197 14.8857 3.72313 15.0302 4.26234C15.0834 4.46104 15.0834 4.70322 15.0834 5.18758C15.0834 5.67195 15.0834 5.91412 15.0302 6.11282C14.8857 6.65203 14.4646 7.0732 13.9253 7.21768C13.7266 7.27091 13.4845 7.27091 13.0001 7.27091C12.5157 7.27091 12.2735 7.27091 12.0749 7.21768C11.5356 7.0732 11.1145 6.65203 10.97 6.11282C10.9167 5.91412 10.9167 5.67195 10.9167 5.18758Z" fill="white"/>
<path d="M16.125 15.6041C16.125 15.1197 16.125 14.8775 16.1782 14.6789C16.3227 14.1396 16.7439 13.7185 17.2831 13.574C17.4818 13.5208 17.724 13.5208 18.2083 13.5208C18.6927 13.5208 18.9349 13.5208 19.1335 13.574C19.6728 13.7185 20.094 14.1396 20.2384 14.6789C20.2917 14.8775 20.2917 15.1197 20.2917 15.6041C20.2917 16.0885 20.2917 16.3306 20.2384 16.5293C20.094 17.0686 19.6728 17.4897 19.1335 17.6342C18.9349 17.6874 18.6927 17.6874 18.2083 17.6874C17.724 17.6874 17.4818 17.6874 17.2831 17.6342C16.7439 17.4897 16.3227 17.0686 16.1782 16.5293C16.125 16.3306 16.125 16.0885 16.125 15.6041Z" fill="white"/>
<path d="M16.125 5.18758C16.125 4.70322 16.125 4.46104 16.1782 4.26234C16.3227 3.72313 16.7439 3.30197 17.2831 3.15749C17.4818 3.10425 17.724 3.10425 18.2083 3.10425C18.6927 3.10425 18.9349 3.10425 19.1335 3.15749C19.6728 3.30197 20.094 3.72313 20.2384 4.26234C20.2917 4.46104 20.2917 4.70322 20.2917 5.18758C20.2917 5.67195 20.2917 5.91412 20.2384 6.11282C20.094 6.65203 19.6728 7.0732 19.1335 7.21768C18.9349 7.27091 18.6927 7.27091 18.2083 7.27091C17.724 7.27091 17.4818 7.27091 17.2831 7.21768C16.7439 7.0732 16.3227 6.65203 16.1782 6.11282C16.125 5.91412 16.125 5.67195 16.125 5.18758Z" fill="white"/>
</svg>
