<svg width="150" height="150" viewBox="0 0 150 150" fill="none" xmlns="http://www.w3.org/2000/svg">
<path d="M90.2953 75C90.2953 83.4288 83.4611 90.2616 75.0308 90.2616C66.6004 90.2616 59.7662 83.4288 59.7662 75C59.7662 66.5712 66.6004 59.7384 75.0308 59.7384C83.4611 59.7384 90.2953 66.5712 90.2953 75Z" stroke="#091331" stroke-width="9.375" stroke-linejoin="round"/>
<path d="M57.2926 29.3283C60.7114 25.4825 62.4208 23.5597 64.1401 22.3329C70.6562 17.6834 79.4054 17.6834 85.9215 22.3329C87.6407 23.5597 89.3501 25.4825 92.7689 29.3283V29.3283C93.8553 30.5503 94.3984 31.1613 94.978 31.7109C97.123 33.7454 99.7187 35.2438 102.553 36.0839C103.319 36.3108 104.12 36.4757 105.722 36.8054V36.8054C110.758 37.8417 113.276 38.3599 115.195 39.2332C122.487 42.5509 126.866 50.1352 126.093 58.1092C125.89 60.2082 125.08 62.6462 123.461 67.5222V67.5222C122.946 69.0725 122.688 69.8477 122.502 70.6238C121.811 73.5004 121.811 76.4996 122.502 79.3762C122.688 80.1523 122.946 80.9275 123.461 82.4778V82.4778C125.08 87.3538 125.89 89.7918 126.093 91.8908C126.866 99.8648 122.487 107.449 115.195 110.767C113.276 111.64 110.758 112.158 105.722 113.195V113.195C104.12 113.524 103.319 113.689 102.553 113.916C99.7187 114.756 97.123 116.255 94.978 118.289C94.3984 118.839 93.8553 119.45 92.7689 120.672V120.672C89.3501 124.517 87.6407 126.44 85.9215 127.667C79.4054 132.317 70.6562 132.317 64.1401 127.667C62.4208 126.44 60.7114 124.517 57.2926 120.672V120.672C56.2063 119.45 55.6631 118.839 55.0835 118.289C52.9385 116.255 50.3428 114.756 47.5083 113.916C46.7424 113.689 45.9413 113.524 44.339 113.195V113.195C39.3036 112.158 36.7858 111.64 34.8663 110.767C27.5741 107.449 23.1954 99.8648 23.9685 91.8908C24.172 89.7917 24.9816 87.3538 26.601 82.4778V82.4778C27.1159 80.9275 27.3734 80.1523 27.5596 79.3762C28.2501 76.4996 28.2501 73.5004 27.5596 70.6237C27.3734 69.8477 27.1159 69.0725 26.601 67.5222V67.5222C24.9816 62.6462 24.172 60.2083 23.9685 58.1092C23.1954 50.1352 27.5741 42.5509 34.8663 39.2332C36.7858 38.3599 39.3036 37.8417 44.339 36.8054V36.8054C45.9413 36.4757 46.7424 36.3108 47.5083 36.0839C50.3428 35.2438 52.9385 33.7454 55.0835 31.7109C55.6631 31.1613 56.2063 30.5503 57.2926 29.3283V29.3283Z" stroke="#091331" stroke-width="9.375" stroke-linejoin="round"/>
</svg>
