<svg width="501" height="121" viewBox="0 0 501 121" fill="none" xmlns="http://www.w3.org/2000/svg">
<path d="M500.313 63.6325H317.454C317.219 63.6325 317.02 63.7417 316.894 63.9238L312.808 69.5695L308.107 61.5199C307.98 61.2831 307.709 61.1556 307.438 61.1921C307.167 61.2285 306.932 61.3924 306.859 61.6474L303.099 73.2666L299.428 52.8146C299.374 52.505 299.103 52.2864 298.778 52.2682C298.416 52.2682 298.163 52.4685 298.091 52.7599L290.533 81.9719L285.362 42.1424C285.326 41.8146 285.037 41.5778 284.675 41.5778C284.332 41.5778 284.043 41.8146 283.988 42.1424L274.153 114.334L263.468 0.600993C263.432 0.273179 263.16 0.0182119 262.799 0C262.437 0 262.148 0.218543 262.094 0.546358L248.263 82.755L243.056 48.6805C243.001 48.3709 242.73 48.1341 242.387 48.1159C242.025 48.1159 241.754 48.3344 241.7 48.6623L236.836 75.2152L233.202 54.9089C233.148 54.6358 232.931 54.4172 232.642 54.3808C232.352 54.3262 232.063 54.4536 231.919 54.6904L226.386 63.6507H0.687032C0.307356 63.6325 0 63.9238 0 64.2881C0 64.6523 0.307356 64.9437 0.687032 64.9437H226.784C227.037 64.9437 227.254 64.8162 227.381 64.6159L232.154 56.8758L236.131 79.1672C236.185 79.4768 236.475 79.7136 236.8 79.7136C237.144 79.75 237.415 79.4768 237.487 79.1672L242.296 52.9056L247.54 87.1623C247.594 87.4901 247.883 87.7268 248.208 87.7268C248.552 87.7268 248.841 87.4901 248.896 87.1805L262.564 5.93709L273.339 120.399C273.376 120.727 273.665 120.982 274.008 121H274.026C274.37 121 274.659 120.763 274.713 120.435L284.657 47.4603L289.629 85.6871C289.665 85.9967 289.937 86.2335 290.28 86.2517C290.606 86.2699 290.913 86.0695 290.985 85.7599L298.633 56.1473L302.231 76.2169C302.285 76.5083 302.538 76.745 302.864 76.7632C303.189 76.7815 303.478 76.5993 303.569 76.3079L307.709 63.5232L312.157 71.1722C312.265 71.3725 312.482 71.5 312.717 71.5C312.952 71.5 313.187 71.4089 313.314 71.2086L317.816 64.9619H500.313C500.693 64.9619 501 64.6705 501 64.3063C501 63.9238 500.693 63.6325 500.313 63.6325Z" fill="url(#paint0_linear_42_1555)"/>
<defs>
<linearGradient id="paint0_linear_42_1555" x1="0" y1="60.5" x2="501" y2="60.5" gradientUnits="userSpaceOnUse">
<stop stop-color="#2B6CF5" stop-opacity="0"/>
<stop offset="0.495" stop-color="#2B6CF5"/>
<stop offset="1" stop-color="#2B6CF5" stop-opacity="0"/>
</linearGradient>
</defs>
</svg>
