<svg width="107" height="16" viewBox="0 0 107 16" fill="none" xmlns="http://www.w3.org/2000/svg">
<path d="M4.16703 15.9392C3.75531 16.1504 3.28813 15.7803 3.37132 15.3078L4.25663 10.2626L0.498887 6.68298C0.147965 6.34806 0.330359 5.73581 0.800743 5.66968L6.0251 4.9273L8.35463 0.31199C8.56475 -0.103997 9.13327 -0.103997 9.34339 0.31199L11.6729 4.9273L16.8973 5.66968C17.3677 5.73581 17.5501 6.34806 17.1981 6.68298L13.4414 10.2626L14.3267 15.3078C14.4099 15.7803 13.9427 16.1504 13.531 15.9392L8.84741 13.5329L4.16703 15.9392Z" fill="#2B6CF5"/>
<path d="M26.5666 15.9392C26.1548 16.1504 25.6877 15.7803 25.7709 15.3078L26.6562 10.2626L22.8984 6.68298C22.5475 6.34806 22.7299 5.73581 23.2003 5.66968L28.4246 4.9273L30.7542 0.31199C30.9643 -0.103997 31.5328 -0.103997 31.7429 0.31199L34.0725 4.9273L39.2968 5.66968C39.7672 5.73581 39.9496 6.34806 39.5976 6.68298L35.8409 10.2626L36.7262 15.3078C36.8094 15.7803 36.3422 16.1504 35.9305 15.9392L31.2469 13.5329L26.5666 15.9392Z" fill="#2B6CF5"/>
<path d="M48.966 15.9392C48.5543 16.1504 48.0871 15.7803 48.1703 15.3078L49.0556 10.2626L45.2978 6.68298C44.9469 6.34806 45.1293 5.73581 45.5997 5.66968L50.8241 4.9273L53.1536 0.31199C53.3637 -0.103997 53.9322 -0.103997 54.1423 0.31199L56.4719 4.9273L61.6962 5.66968C62.1666 5.73581 62.349 6.34806 61.997 6.68298L58.2403 10.2626L59.1256 15.3078C59.2088 15.7803 58.7417 16.1504 58.3299 15.9392L53.6464 13.5329L48.966 15.9392Z" fill="#2B6CF5"/>
<path d="M71.3655 15.9392C70.9538 16.1504 70.4866 15.7803 70.5698 15.3078L71.4551 10.2626L67.6974 6.68298C67.3465 6.34806 67.5288 5.73581 67.9992 5.66968L73.2236 4.9273L75.5531 0.31199C75.7632 -0.103997 76.3318 -0.103997 76.5419 0.31199L78.8714 4.9273L84.0958 5.66968C84.5661 5.73581 84.7485 6.34806 84.3966 6.68298L80.6399 10.2626L81.5252 15.3078C81.6084 15.7803 81.1412 16.1504 80.7295 15.9392L76.0459 13.5329L71.3655 15.9392Z" fill="#2B6CF5"/>
<path d="M93.7649 15.9392C93.3532 16.1504 92.886 15.7803 92.9692 15.3078L93.8545 10.2626L90.0968 6.68298C89.7459 6.34806 89.9283 5.73581 90.3986 5.66968L95.623 4.9273L97.9525 0.31199C98.1627 -0.103997 98.7312 -0.103997 98.9413 0.31199L101.271 4.9273L106.495 5.66968C106.966 5.73581 107.148 6.34806 106.796 6.68298L103.039 10.2626L103.925 15.3078C104.008 15.7803 103.541 16.1504 103.129 15.9392L98.4453 13.5329L93.7649 15.9392Z" fill="#2B6CF5"/>
</svg>
